<svg xmlns="http://www.w3.org/2000/svg" viewBox="0 0 480 300" width="480" height="300" shape-rendering="crispEdges" role="img"><title>Circuit Runner</title><rect width="480" height="300" fill="#071a12"/><rect x="33" y="0" width="12" height="300" fill="#1d5c3c"/><rect x="30" y="-30" width="18" height="6" fill="#c08a3e"/><rect x="30" y="30" width="18" height="6" fill="#c08a3e"/><rect x="30" y="90" width="18" height="6" fill="#c08a3e"/><rect x="30" y="150" width="18" height="6" fill="#c08a3e"/><rect x="30" y="210" width="18" height="6" fill="#c08a3e"/><rect x="30" y="270" width="18" height="6" fill="#c08a3e"/><rect x="114" y="0" width="12" height="300" fill="#1d5c3c"/><rect x="111" y="-30" width="18" height="6" fill="#c08a3e"/><rect x="111" y="30" width="18" height="6" fill="#c08a3e"/><rect x="111" y="90" width="18" height="6" fill="#c08a3e"/><rect x="111" y="150" width="18" height="6" fill="#c08a3e"/><rect x="111" y="210" width="18" height="6" fill="#c08a3e"/><rect x="111" y="270" width="18" height="6" fill="#c08a3e"/><rect x="195" y="0" width="12" height="300" fill="#2f8a58"/><rect x="192" y="-30" width="18" height="6" fill="#c08a3e"/><rect x="192" y="30" width="18" height="6" fill="#c08a3e"/><rect x="192" y="90" width="18" height="6" fill="#c08a3e"/><rect x="192" y="150" width="18" height="6" fill="#c08a3e"/><rect x="192" y="210" width="18" height="6" fill="#c08a3e"/><rect x="192" y="270" width="18" height="6" fill="#c08a3e"/><rect x="273" y="0" width="12" height="300" fill="#1d5c3c"/><rect x="270" y="-30" width="18" height="6" fill="#c08a3e"/><rect x="270" y="30" width="18" height="6" fill="#c08a3e"/><rect x="270" y="90" width="18" height="6" fill="#c08a3e"/><rect x="270" y="150" width="18" height="6" fill="#c08a3e"/><rect x="270" y="210" width="18" height="6" fill="#c08a3e"/><rect x="270" y="270" width="18" height="6" fill="#c08a3e"/><rect x="354" y="0" width="12" height="300" fill="#1d5c3c"/><rect x="351" y="-30" width="18" height="6" fill="#c08a3e"/><rect x="351" y="30" width="18" height="6" fill="#c08a3e"/><rect x="351" y="90" width="18" height="6" fill="#c08a3e"/><rect x="351" y="150" width="18" height="6" fill="#c08a3e"/><rect x="351" y="210" width="18" height="6" fill="#c08a3e"/><rect x="351" y="270" width="18" height="6" fill="#c08a3e"/><rect x="435" y="0" width="12" height="300" fill="#1d5c3c"/><rect x="432" y="-30" width="18" height="6" fill="#c08a3e"/><rect x="432" y="30" width="18" height="6" fill="#c08a3e"/><rect x="432" y="90" width="18" height="6" fill="#c08a3e"/><rect x="432" y="150" width="18" height="6" fill="#c08a3e"/><rect x="432" y="210" width="18" height="6" fill="#c08a3e"/><rect x="432" y="270" width="18" height="6" fill="#c08a3e"/><rect x="3" y="57" width="72" height="6" fill="#8a6a3a"/><rect x="12" y="51" width="54" height="18" fill="#d8b784"/><rect x="21" y="51" width="6" height="18" fill="#8a3f2a"/><rect x="30" y="51" width="6" height="18" fill="#2b2b2b"/><rect x="39" y="51" width="6" height="18" fill="#c8a020"/><rect x="336" y="27" width="6" height="6" fill="#c9c9c9"/><rect x="336" y="63" width="6" height="6" fill="#c9c9c9"/><rect x="348" y="27" width="6" height="6" fill="#c9c9c9"/><rect x="348" y="63" width="6" height="6" fill="#c9c9c9"/><rect x="360" y="27" width="6" height="6" fill="#c9c9c9"/><rect x="360" y="63" width="6" height="6" fill="#c9c9c9"/><rect x="372" y="27" width="6" height="6" fill="#c9c9c9"/><rect x="372" y="63" width="6" height="6" fill="#c9c9c9"/><rect x="384" y="27" width="6" height="6" fill="#c9c9c9"/><rect x="384" y="63" width="6" height="6" fill="#c9c9c9"/><rect x="396" y="27" width="6" height="6" fill="#c9c9c9"/><rect x="396" y="63" width="6" height="6" fill="#c9c9c9"/><rect x="408" y="27" width="6" height="6" fill="#c9c9c9"/><rect x="408" y="63" width="6" height="6" fill="#c9c9c9"/><rect x="420" y="27" width="6" height="6" fill="#c9c9c9"/><rect x="420" y="63" width="6" height="6" fill="#c9c9c9"/><rect x="432" y="27" width="6" height="6" fill="#c9c9c9"/><rect x="432" y="63" width="6" height="6" fill="#c9c9c9"/><rect x="444" y="27" width="6" height="6" fill="#c9c9c9"/><rect x="444" y="63" width="6" height="6" fill="#c9c9c9"/><rect x="456" y="27" width="6" height="6" fill="#c9c9c9"/><rect x="456" y="63" width="6" height="6" fill="#c9c9c9"/><rect x="333" y="33" width="135" height="30" fill="#14161a"/><rect x="336" y="36" width="129" height="3" fill="#3a4048"/><rect x="339" y="45" width="6" height="6" fill="#8a9098"/><rect x="93" y="135" width="54" height="9" fill="#ffe08a"/><rect x="93" y="156" width="54" height="9" fill="#ffe08a"/><rect x="99" y="144" width="42" height="12" fill="#ffd166"/><rect x="105" y="147" width="3" height="6" fill="#ffffff"/><rect x="117" y="147" width="3" height="6" fill="#ffffff"/><rect x="243" y="153" width="72" height="6" fill="#8a6a3a"/><rect x="252" y="147" width="54" height="18" fill="#d8b784"/><rect x="261" y="147" width="6" height="18" fill="#8a3f2a"/><rect x="270" y="147" width="6" height="18" fill="#2b2b2b"/><rect x="279" y="147" width="6" height="18" fill="#c8a020"/><rect x="12" y="225" width="135" height="18" fill="#9aa4ad"/><rect x="18" y="228" width="123" height="6" fill="#d6dee4"/><rect x="201" y="84" width="6" height="3" fill="#ffd166"/><rect x="198" y="87" width="3" height="3" fill="#ffd166"/><rect x="201" y="87" width="3" height="3" fill="#ffffff"/><rect x="204" y="87" width="3" height="3" fill="#ffd166"/><rect x="195" y="90" width="3" height="3" fill="#ffd166"/><rect x="198" y="90" width="6" height="3" fill="#ffffff"/><rect x="204" y="90" width="3" height="3" fill="#ffd166"/><rect x="192" y="93" width="3" height="3" fill="#ffd166"/><rect x="195" y="93" width="6" height="3" fill="#ffffff"/><rect x="201" y="93" width="12" height="3" fill="#ffd166"/><rect x="189" y="96" width="12" height="3" fill="#ffd166"/><rect x="201" y="96" width="6" height="3" fill="#ffffff"/><rect x="207" y="96" width="3" height="3" fill="#ffd166"/><rect x="195" y="99" width="3" height="3" fill="#e08a12"/><rect x="198" y="99" width="3" height="3" fill="#ffd166"/><rect x="201" y="99" width="3" height="3" fill="#ffffff"/><rect x="204" y="99" width="3" height="3" fill="#ffd166"/><rect x="195" y="102" width="3" height="3" fill="#e08a12"/><rect x="198" y="102" width="6" height="3" fill="#ffd166"/><rect x="195" y="105" width="6" height="3" fill="#e08a12"/><rect x="441" y="174" width="6" height="3" fill="#ffd166"/><rect x="438" y="177" width="3" height="3" fill="#ffd166"/><rect x="441" y="177" width="3" height="3" fill="#ffffff"/><rect x="444" y="177" width="3" height="3" fill="#ffd166"/><rect x="435" y="180" width="3" height="3" fill="#ffd166"/><rect x="438" y="180" width="6" height="3" fill="#ffffff"/><rect x="444" y="180" width="3" height="3" fill="#ffd166"/><rect x="432" y="183" width="3" height="3" fill="#ffd166"/><rect x="435" y="183" width="6" height="3" fill="#ffffff"/><rect x="441" y="183" width="12" height="3" fill="#ffd166"/><rect x="429" y="186" width="12" height="3" fill="#ffd166"/><rect x="441" y="186" width="6" height="3" fill="#ffffff"/><rect x="447" y="186" width="3" height="3" fill="#ffd166"/><rect x="435" y="189" width="3" height="3" fill="#e08a12"/><rect x="438" y="189" width="3" height="3" fill="#ffd166"/><rect x="441" y="189" width="3" height="3" fill="#ffffff"/><rect x="444" y="189" width="3" height="3" fill="#ffd166"/><rect x="435" y="192" width="3" height="3" fill="#e08a12"/><rect x="438" y="192" width="6" height="3" fill="#ffd166"/><rect x="435" y="195" width="6" height="3" fill="#e08a12"/><rect x="198" y="225" width="6" height="3" fill="#ffd166"/><rect x="195" y="228" width="3" height="3" fill="#ffd166"/><rect x="198" y="228" width="6" height="3" fill="#e8fff4"/><rect x="204" y="228" width="3" height="3" fill="#ffd166"/><rect x="192" y="231" width="3" height="3" fill="#ffd166"/><rect x="195" y="231" width="3" height="3" fill="#e8fff4"/><rect x="198" y="231" width="6" height="3" fill="#6ee7a8"/><rect x="204" y="231" width="3" height="3" fill="#e8fff4"/><rect x="207" y="231" width="3" height="3" fill="#ffd166"/><rect x="189" y="234" width="3" height="3" fill="#6ee7a8"/><rect x="192" y="234" width="3" height="3" fill="#e8fff4"/><rect x="195" y="234" width="12" height="3" fill="#6ee7a8"/><rect x="207" y="234" width="3" height="3" fill="#e8fff4"/><rect x="210" y="234" width="3" height="3" fill="#6ee7a8"/><rect x="186" y="237" width="30" height="3" fill="#6ee7a8"/><rect x="183" y="240" width="9" height="3" fill="#6ee7a8"/><rect x="192" y="240" width="6" height="3" fill="#2b9c67"/><rect x="198" y="240" width="6" height="3" fill="#6ee7a8"/><rect x="204" y="240" width="6" height="3" fill="#2b9c67"/><rect x="210" y="240" width="9" height="3" fill="#6ee7a8"/><rect x="180" y="243" width="9" height="3" fill="#6ee7a8"/><rect x="189" y="243" width="9" height="3" fill="#2b9c67"/><rect x="198" y="243" width="6" height="3" fill="#6ee7a8"/><rect x="204" y="243" width="9" height="3" fill="#2b9c67"/><rect x="213" y="243" width="9" height="3" fill="#6ee7a8"/><rect x="180" y="246" width="6" height="3" fill="#6ee7a8"/><rect x="186" y="246" width="6" height="3" fill="#2b9c67"/><rect x="192" y="246" width="6" height="3" fill="#0d3a26"/><rect x="198" y="246" width="6" height="3" fill="#6ee7a8"/><rect x="204" y="246" width="6" height="3" fill="#0d3a26"/><rect x="210" y="246" width="6" height="3" fill="#2b9c67"/><rect x="216" y="246" width="6" height="3" fill="#6ee7a8"/><rect x="180" y="249" width="3" height="3" fill="#6ee7a8"/><rect x="183" y="249" width="6" height="3" fill="#2b9c67"/><rect x="189" y="249" width="6" height="3" fill="#0d3a26"/><rect x="198" y="249" width="6" height="3" fill="#6ee7a8"/><rect x="207" y="249" width="6" height="3" fill="#0d3a26"/><rect x="213" y="249" width="6" height="3" fill="#2b9c67"/><rect x="219" y="249" width="3" height="3" fill="#6ee7a8"/><rect x="180" y="252" width="3" height="3" fill="#6ee7a8"/><rect x="183" y="252" width="6" height="3" fill="#2b9c67"/><rect x="189" y="252" width="3" height="3" fill="#0d3a26"/><rect x="201" y="252" width="6" height="3" fill="#6ee7a8"/><rect x="213" y="252" width="3" height="3" fill="#0d3a26"/><rect x="216" y="252" width="3" height="3" fill="#2b9c67"/><rect x="219" y="252" width="3" height="3" fill="#6ee7a8"/><rect x="183" y="255" width="6" height="3" fill="#2b9c67"/><rect x="216" y="255" width="3" height="3" fill="#2b9c67"/><rect x="183" y="258" width="3" height="3" fill="#2b9c67"/><rect x="219" y="258" width="3" height="3" fill="#2b9c67"/><rect x="186" y="261" width="3" height="3" fill="#0d3a26"/><rect x="216" y="261" width="3" height="3" fill="#0d3a26"/><rect x="189" y="264" width="3" height="3" fill="#0d3a26"/><rect x="213" y="264" width="3" height="3" fill="#0d3a26"/><rect x="0" y="0" width="480" height="1" fill="#000" opacity="0.26"/><rect x="0" y="3" width="480" height="1" fill="#000" opacity="0.26"/><rect x="0" y="6" width="480" height="1" fill="#000" opacity="0.26"/><rect x="0" y="9" width="480" height="1" fill="#000" opacity="0.26"/><rect x="0" y="12" width="480" height="1" fill="#000" opacity="0.26"/><rect x="0" y="15" width="480" height="1" fill="#000" opacity="0.26"/><rect x="0" y="18" width="480" height="1" fill="#000" opacity="0.26"/><rect x="0" y="21" width="480" height="1" fill="#000" opacity="0.26"/><rect x="0" y="24" width="480" height="1" fill="#000" opacity="0.26"/><rect x="0" y="27" width="480" height="1" fill="#000" opacity="0.26"/><rect x="0" y="30" width="480" height="1" fill="#000" opacity="0.26"/><rect x="0" y="33" width="480" height="1" fill="#000" opacity="0.26"/><rect x="0" y="36" width="480" height="1" fill="#000" opacity="0.26"/><rect x="0" y="39" width="480" height="1" fill="#000" opacity="0.26"/><rect x="0" y="42" width="480" height="1" fill="#000" opacity="0.26"/><rect x="0" y="45" width="480" height="1" fill="#000" opacity="0.26"/><rect x="0" y="48" width="480" height="1" fill="#000" opacity="0.26"/><rect x="0" y="51" width="480" height="1" fill="#000" opacity="0.26"/><rect x="0" y="54" width="480" height="1" fill="#000" opacity="0.26"/><rect x="0" y="57" width="480" height="1" fill="#000" opacity="0.26"/><rect x="0" y="60" width="480" height="1" fill="#000" opacity="0.26"/><rect x="0" y="63" width="480" height="1" fill="#000" opacity="0.26"/><rect x="0" y="66" width="480" height="1" fill="#000" opacity="0.26"/><rect x="0" y="69" width="480" height="1" fill="#000" opacity="0.26"/><rect x="0" y="72" width="480" height="1" fill="#000" opacity="0.26"/><rect x="0" y="75" width="480" height="1" fill="#000" opacity="0.26"/><rect x="0" y="78" width="480" height="1" fill="#000" opacity="0.26"/><rect x="0" y="81" width="480" height="1" fill="#000" opacity="0.26"/><rect x="0" y="84" width="480" height="1" fill="#000" opacity="0.26"/><rect x="0" y="87" width="480" height="1" fill="#000" opacity="0.26"/><rect x="0" y="90" width="480" height="1" fill="#000" opacity="0.26"/><rect x="0" y="93" width="480" height="1" fill="#000" opacity="0.26"/><rect x="0" y="96" width="480" height="1" fill="#000" opacity="0.26"/><rect x="0" y="99" width="480" height="1" fill="#000" opacity="0.26"/><rect x="0" y="102" width="480" height="1" fill="#000" opacity="0.26"/><rect x="0" y="105" width="480" height="1" fill="#000" opacity="0.26"/><rect x="0" y="108" width="480" height="1" fill="#000" opacity="0.26"/><rect x="0" y="111" width="480" height="1" fill="#000" opacity="0.26"/><rect x="0" y="114" width="480" height="1" fill="#000" opacity="0.26"/><rect x="0" y="117" width="480" height="1" fill="#000" opacity="0.26"/><rect x="0" y="120" width="480" height="1" fill="#000" opacity="0.26"/><rect x="0" y="123" width="480" height="1" fill="#000" opacity="0.26"/><rect x="0" y="126" width="480" height="1" fill="#000" opacity="0.26"/><rect x="0" y="129" width="480" height="1" fill="#000" opacity="0.26"/><rect x="0" y="132" width="480" height="1" fill="#000" opacity="0.26"/><rect x="0" y="135" width="480" height="1" fill="#000" opacity="0.26"/><rect x="0" y="138" width="480" height="1" fill="#000" opacity="0.26"/><rect x="0" y="141" width="480" height="1" fill="#000" opacity="0.26"/><rect x="0" y="144" width="480" height="1" fill="#000" opacity="0.26"/><rect x="0" y="147" width="480" height="1" fill="#000" opacity="0.26"/><rect x="0" y="150" width="480" height="1" fill="#000" opacity="0.26"/><rect x="0" y="153" width="480" height="1" fill="#000" opacity="0.26"/><rect x="0" y="156" width="480" height="1" fill="#000" opacity="0.26"/><rect x="0" y="159" width="480" height="1" fill="#000" opacity="0.26"/><rect x="0" y="162" width="480" height="1" fill="#000" opacity="0.26"/><rect x="0" y="165" width="480" height="1" fill="#000" opacity="0.26"/><rect x="0" y="168" width="480" height="1" fill="#000" opacity="0.26"/><rect x="0" y="171" width="480" height="1" fill="#000" opacity="0.26"/><rect x="0" y="174" width="480" height="1" fill="#000" opacity="0.26"/><rect x="0" y="177" width="480" height="1" fill="#000" opacity="0.26"/><rect x="0" y="180" width="480" height="1" fill="#000" opacity="0.26"/><rect x="0" y="183" width="480" height="1" fill="#000" opacity="0.26"/><rect x="0" y="186" width="480" height="1" fill="#000" opacity="0.26"/><rect x="0" y="189" width="480" height="1" fill="#000" opacity="0.26"/><rect x="0" y="192" width="480" height="1" fill="#000" opacity="0.26"/><rect x="0" y="195" width="480" height="1" fill="#000" opacity="0.26"/><rect x="0" y="198" width="480" height="1" fill="#000" opacity="0.26"/><rect x="0" y="201" width="480" height="1" fill="#000" opacity="0.26"/><rect x="0" y="204" width="480" height="1" fill="#000" opacity="0.26"/><rect x="0" y="207" width="480" height="1" fill="#000" opacity="0.26"/><rect x="0" y="210" width="480" height="1" fill="#000" opacity="0.26"/><rect x="0" y="213" width="480" height="1" fill="#000" opacity="0.26"/><rect x="0" y="216" width="480" height="1" fill="#000" opacity="0.26"/><rect x="0" y="219" width="480" height="1" fill="#000" opacity="0.26"/><rect x="0" y="222" width="480" height="1" fill="#000" opacity="0.26"/><rect x="0" y="225" width="480" height="1" fill="#000" opacity="0.26"/><rect x="0" y="228" width="480" height="1" fill="#000" opacity="0.26"/><rect x="0" y="231" width="480" height="1" fill="#000" opacity="0.26"/><rect x="0" y="234" width="480" height="1" fill="#000" opacity="0.26"/><rect x="0" y="237" width="480" height="1" fill="#000" opacity="0.26"/><rect x="0" y="240" width="480" height="1" fill="#000" opacity="0.26"/><rect x="0" y="243" width="480" height="1" fill="#000" opacity="0.26"/><rect x="0" y="246" width="480" height="1" fill="#000" opacity="0.26"/><rect x="0" y="249" width="480" height="1" fill="#000" opacity="0.26"/><rect x="0" y="252" width="480" height="1" fill="#000" opacity="0.26"/><rect x="0" y="255" width="480" height="1" fill="#000" opacity="0.26"/><rect x="0" y="258" width="480" height="1" fill="#000" opacity="0.26"/><rect x="0" y="261" width="480" height="1" fill="#000" opacity="0.26"/><rect x="0" y="264" width="480" height="1" fill="#000" opacity="0.26"/><rect x="0" y="267" width="480" height="1" fill="#000" opacity="0.26"/><rect x="0" y="270" width="480" height="1" fill="#000" opacity="0.26"/><rect x="0" y="273" width="480" height="1" fill="#000" opacity="0.26"/><rect x="0" y="276" width="480" height="1" fill="#000" opacity="0.26"/><rect x="0" y="279" width="480" height="1" fill="#000" opacity="0.26"/><rect x="0" y="282" width="480" height="1" fill="#000" opacity="0.26"/><rect x="0" y="285" width="480" height="1" fill="#000" opacity="0.26"/><rect x="0" y="288" width="480" height="1" fill="#000" opacity="0.26"/><rect x="0" y="291" width="480" height="1" fill="#000" opacity="0.26"/><rect x="0" y="294" width="480" height="1" fill="#000" opacity="0.26"/><rect x="0" y="297" width="480" height="1" fill="#000" opacity="0.26"/></svg>