<svg xmlns="http://www.w3.org/2000/svg" viewBox="0 0 480 300" width="480" height="300" shape-rendering="crispEdges" role="img"><title>Sector Defense</title><rect width="480" height="300" fill="#060a12"/><rect x="432" y="27" width="3" height="3" fill="#4d5b78"/><rect x="129" y="204" width="3" height="3" fill="#4d5b78"/><rect x="441" y="6" width="3" height="3" fill="#4d5b78"/><rect x="252" y="15" width="3" height="3" fill="#4d5b78"/><rect x="93" y="171" width="3" height="3" fill="#4d5b78"/><rect x="216" y="225" width="3" height="3" fill="#c9d6ee"/><rect x="468" y="3" width="3" height="3" fill="#c9d6ee"/><rect x="72" y="90" width="3" height="3" fill="#c9d6ee"/><rect x="285" y="126" width="3" height="3" fill="#4d5b78"/><rect x="222" y="54" width="3" height="3" fill="#c9d6ee"/><rect x="411" y="120" width="3" height="3" fill="#c9d6ee"/><rect x="186" y="183" width="3" height="3" fill="#c9d6ee"/><rect x="93" y="72" width="3" height="3" fill="#c9d6ee"/><rect x="237" y="138" width="3" height="3" fill="#4d5b78"/><rect x="225" y="6" width="3" height="3" fill="#4d5b78"/><rect x="294" y="69" width="3" height="3" fill="#4d5b78"/><rect x="180" y="213" width="3" height="3" fill="#4d5b78"/><rect x="6" y="198" width="3" height="3" fill="#4d5b78"/><rect x="294" y="150" width="3" height="3" fill="#4d5b78"/><rect x="84" y="177" width="3" height="3" fill="#c9d6ee"/><rect x="303" y="27" width="3" height="3" fill="#4d5b78"/><rect x="177" y="6" width="3" height="3" fill="#4d5b78"/><rect x="405" y="108" width="3" height="3" fill="#4d5b78"/><rect x="414" y="156" width="3" height="3" fill="#4d5b78"/><rect x="6" y="105" width="3" height="3" fill="#c9d6ee"/><rect x="171" y="84" width="3" height="3" fill="#4d5b78"/><rect x="63" y="126" width="3" height="3" fill="#4d5b78"/><rect x="369" y="207" width="3" height="3" fill="#4d5b78"/><rect x="159" y="126" width="3" height="3" fill="#c9d6ee"/><rect x="471" y="24" width="3" height="3" fill="#c9d6ee"/><rect x="84" y="27" width="3" height="3" fill="#4d5b78"/><rect x="261" y="54" width="3" height="3" fill="#4d5b78"/><rect x="381" y="9" width="3" height="3" fill="#4d5b78"/><rect x="132" y="138" width="3" height="3" fill="#c9d6ee"/><rect x="372" y="105" width="3" height="3" fill="#c9d6ee"/><rect x="315" y="114" width="3" height="3" fill="#4d5b78"/><rect x="102" y="93" width="3" height="3" fill="#4d5b78"/><rect x="171" y="213" width="3" height="3" fill="#4d5b78"/><rect x="57" y="30" width="3" height="3" fill="#c9d6ee"/><rect x="297" y="87" width="3" height="3" fill="#c9d6ee"/><rect x="198" y="9" width="3" height="3" fill="#c9d6ee"/><rect x="270" y="192" width="3" height="3" fill="#4d5b78"/><rect x="261" y="201" width="3" height="3" fill="#4d5b78"/><rect x="348" y="78" width="3" height="3" fill="#4d5b78"/><rect x="39" y="177" width="3" height="3" fill="#4d5b78"/><rect x="459" y="201" width="3" height="3" fill="#4d5b78"/><rect x="231" y="219" width="3" height="3" fill="#4d5b78"/><rect x="180" y="141" width="3" height="3" fill="#c9d6ee"/><rect x="300" y="60" width="3" height="3" fill="#4d5b78"/><rect x="450" y="174" width="3" height="3" fill="#4d5b78"/><rect x="60" y="36" width="3" height="3" fill="#4d5b78"/><rect x="216" y="102" width="3" height="3" fill="#4d5b78"/><rect x="114" y="63" width="3" height="3" fill="#c9d6ee"/><rect x="144" y="141" width="3" height="3" fill="#4d5b78"/><rect x="345" y="108" width="3" height="3" fill="#4d5b78"/><rect x="393" y="198" width="3" height="3" fill="#4d5b78"/><rect x="405" y="111" width="3" height="3" fill="#c9d6ee"/><rect x="210" y="90" width="3" height="3" fill="#4d5b78"/><rect x="381" y="81" width="3" height="3" fill="#4d5b78"/><rect x="231" y="207" width="3" height="3" fill="#4d5b78"/><rect x="9" y="162" width="3" height="3" fill="#4d5b78"/><rect x="21" y="204" width="3" height="3" fill="#c9d6ee"/><rect x="156" y="156" width="3" height="3" fill="#c9d6ee"/><rect x="195" y="156" width="3" height="3" fill="#4d5b78"/><rect x="297" y="45" width="3" height="3" fill="#4d5b78"/><rect x="48" y="186" width="3" height="3" fill="#c9d6ee"/><rect x="111" y="123" width="3" height="3" fill="#4d5b78"/><rect x="267" y="87" width="3" height="3" fill="#4d5b78"/><rect x="96" y="6" width="3" height="3" fill="#c9d6ee"/><rect x="168" y="51" width="3" height="3" fill="#4d5b78"/><rect x="87" y="42" width="36" height="3" fill="#9fe8b0"/><rect x="84" y="45" width="3" height="3" fill="#9fe8b0"/><rect x="87" y="45" width="36" height="3" fill="#3f9c5c"/><rect x="123" y="45" width="3" height="3" fill="#9fe8b0"/><rect x="84" y="48" width="3" height="3" fill="#9fe8b0"/><rect x="87" y="48" width="6" height="3" fill="#3f9c5c"/><rect x="93" y="48" width="6" height="3" fill="#123a20"/><rect x="99" y="48" width="12" height="3" fill="#3f9c5c"/><rect x="111" y="48" width="6" height="3" fill="#123a20"/><rect x="117" y="48" width="6" height="3" fill="#3f9c5c"/><rect x="123" y="48" width="3" height="3" fill="#9fe8b0"/><rect x="84" y="51" width="3" height="3" fill="#9fe8b0"/><rect x="87" y="51" width="36" height="3" fill="#3f9c5c"/><rect x="123" y="51" width="3" height="3" fill="#9fe8b0"/><rect x="84" y="54" width="3" height="3" fill="#9fe8b0"/><rect x="87" y="54" width="36" height="3" fill="#3f9c5c"/><rect x="123" y="54" width="3" height="3" fill="#9fe8b0"/><rect x="87" y="57" width="6" height="3" fill="#9fe8b0"/><rect x="93" y="57" width="24" height="3" fill="#3f9c5c"/><rect x="117" y="57" width="6" height="3" fill="#9fe8b0"/><rect x="90" y="60" width="3" height="3" fill="#9fe8b0"/><rect x="96" y="60" width="3" height="3" fill="#9fe8b0"/><rect x="102" y="60" width="6" height="3" fill="#9fe8b0"/><rect x="111" y="60" width="3" height="3" fill="#9fe8b0"/><rect x="117" y="60" width="3" height="3" fill="#9fe8b0"/><rect x="228" y="30" width="18" height="3" fill="#ff8fa3"/><rect x="225" y="33" width="3" height="3" fill="#ff8fa3"/><rect x="228" y="33" width="18" height="3" fill="#c33b55"/><rect x="246" y="33" width="3" height="3" fill="#ff8fa3"/><rect x="222" y="36" width="3" height="3" fill="#ff8fa3"/><rect x="225" y="36" width="6" height="3" fill="#c33b55"/><rect x="231" y="36" width="12" height="3" fill="#5c0f20"/><rect x="243" y="36" width="6" height="3" fill="#c33b55"/><rect x="249" y="36" width="3" height="3" fill="#ff8fa3"/><rect x="222" y="39" width="3" height="3" fill="#ff8fa3"/><rect x="225" y="39" width="24" height="3" fill="#c33b55"/><rect x="249" y="39" width="3" height="3" fill="#ff8fa3"/><rect x="225" y="42" width="3" height="3" fill="#ff8fa3"/><rect x="228" y="42" width="18" height="3" fill="#c33b55"/><rect x="246" y="42" width="3" height="3" fill="#ff8fa3"/><rect x="228" y="45" width="3" height="3" fill="#ff8fa3"/><rect x="234" y="45" width="6" height="3" fill="#ff8fa3"/><rect x="243" y="45" width="3" height="3" fill="#ff8fa3"/><rect x="339" y="72" width="3" height="3" fill="#ffd166"/><rect x="360" y="72" width="3" height="3" fill="#ffd166"/><rect x="336" y="75" width="9" height="3" fill="#ffd166"/><rect x="348" y="75" width="6" height="3" fill="#5c3a05"/><rect x="357" y="75" width="9" height="3" fill="#ffd166"/><rect x="339" y="78" width="3" height="3" fill="#ffd166"/><rect x="342" y="78" width="18" height="3" fill="#d18f22"/><rect x="360" y="78" width="3" height="3" fill="#ffd166"/><rect x="342" y="81" width="3" height="3" fill="#ffd166"/><rect x="345" y="81" width="12" height="3" fill="#d18f22"/><rect x="357" y="81" width="3" height="3" fill="#ffd166"/><rect x="339" y="84" width="3" height="3" fill="#ffd166"/><rect x="345" y="84" width="3" height="3" fill="#ffd166"/><rect x="348" y="84" width="6" height="3" fill="#d18f22"/><rect x="354" y="84" width="3" height="3" fill="#ffd166"/><rect x="360" y="84" width="3" height="3" fill="#ffd166"/><rect x="336" y="87" width="3" height="3" fill="#ffd166"/><rect x="348" y="87" width="6" height="3" fill="#ffd166"/><rect x="363" y="87" width="3" height="3" fill="#ffd166"/><rect x="168" y="120" width="3" height="3" fill="#b98cff"/><rect x="195" y="120" width="3" height="3" fill="#b98cff"/><rect x="168" y="123" width="3" height="3" fill="#b98cff"/><rect x="171" y="123" width="3" height="3" fill="#7a4fd8"/><rect x="192" y="123" width="3" height="3" fill="#7a4fd8"/><rect x="195" y="123" width="3" height="3" fill="#b98cff"/><rect x="168" y="126" width="3" height="3" fill="#b98cff"/><rect x="171" y="126" width="9" height="3" fill="#7a4fd8"/><rect x="186" y="126" width="9" height="3" fill="#7a4fd8"/><rect x="195" y="126" width="3" height="3" fill="#b98cff"/><rect x="171" y="129" width="3" height="3" fill="#b98cff"/><rect x="174" y="129" width="6" height="3" fill="#7a4fd8"/><rect x="180" y="129" width="6" height="3" fill="#2c0f5c"/><rect x="186" y="129" width="6" height="3" fill="#7a4fd8"/><rect x="192" y="129" width="3" height="3" fill="#b98cff"/><rect x="174" y="132" width="3" height="3" fill="#b98cff"/><rect x="177" y="132" width="12" height="3" fill="#7a4fd8"/><rect x="189" y="132" width="3" height="3" fill="#b98cff"/><rect x="177" y="135" width="3" height="3" fill="#b98cff"/><rect x="180" y="135" width="6" height="3" fill="#7a4fd8"/><rect x="186" y="135" width="3" height="3" fill="#b98cff"/><rect x="306" y="138" width="18" height="3" fill="#ff8fa3"/><rect x="303" y="141" width="3" height="3" fill="#ff8fa3"/><rect x="306" y="141" width="18" height="3" fill="#c33b55"/><rect x="324" y="141" width="3" height="3" fill="#ff8fa3"/><rect x="300" y="144" width="3" height="3" fill="#ff8fa3"/><rect x="303" y="144" width="6" height="3" fill="#c33b55"/><rect x="309" y="144" width="12" height="3" fill="#5c0f20"/><rect x="321" y="144" width="6" height="3" fill="#c33b55"/><rect x="327" y="144" width="3" height="3" fill="#ff8fa3"/><rect x="300" y="147" width="3" height="3" fill="#ff8fa3"/><rect x="303" y="147" width="24" height="3" fill="#c33b55"/><rect x="327" y="147" width="3" height="3" fill="#ff8fa3"/><rect x="303" y="150" width="3" height="3" fill="#ff8fa3"/><rect x="306" y="150" width="18" height="3" fill="#c33b55"/><rect x="324" y="150" width="3" height="3" fill="#ff8fa3"/><rect x="306" y="153" width="3" height="3" fill="#ff8fa3"/><rect x="312" y="153" width="6" height="3" fill="#ff8fa3"/><rect x="321" y="153" width="3" height="3" fill="#ff8fa3"/><rect x="186" y="168" width="6" height="9" fill="#ff5470"/><rect x="186" y="168" width="3" height="3" fill="#ffd0d8"/><rect x="192" y="198" width="6" height="9" fill="#ff5470"/><rect x="192" y="198" width="3" height="3" fill="#ffd0d8"/><rect x="312" y="186" width="6" height="9" fill="#ff5470"/><rect x="312" y="186" width="3" height="3" fill="#ffd0d8"/><rect x="348" y="120" width="6" height="9" fill="#ff5470"/><rect x="348" y="120" width="3" height="3" fill="#ffd0d8"/><rect x="234" y="168" width="6" height="12" fill="#ffd166"/><rect x="234" y="168" width="3" height="6" fill="#fff6d6"/><rect x="234" y="120" width="6" height="12" fill="#ffd166"/><rect x="234" y="120" width="3" height="6" fill="#fff6d6"/><rect x="234" y="72" width="6" height="12" fill="#ffd166"/><rect x="234" y="72" width="3" height="6" fill="#fff6d6"/><rect x="0" y="252" width="12" height="6" fill="#1c4a2b"/><rect x="12" y="252" width="12" height="6" fill="#7dff9a"/><rect x="24" y="252" width="12" height="6" fill="#1c4a2b"/><rect x="36" y="252" width="12" height="6" fill="#7dff9a"/><rect x="48" y="252" width="12" height="6" fill="#1c4a2b"/><rect x="60" y="252" width="12" height="6" fill="#7dff9a"/><rect x="72" y="252" width="12" height="6" fill="#1c4a2b"/><rect x="84" y="252" width="12" height="6" fill="#7dff9a"/><rect x="96" y="252" width="12" height="6" fill="#1c4a2b"/><rect x="108" y="252" width="12" height="6" fill="#7dff9a"/><rect x="120" y="252" width="12" height="6" fill="#1c4a2b"/><rect x="132" y="252" width="12" height="6" fill="#7dff9a"/><rect x="144" y="252" width="12" height="6" fill="#1c4a2b"/><rect x="156" y="252" width="12" height="6" fill="#7dff9a"/><rect x="168" y="252" width="12" height="6" fill="#1c4a2b"/><rect x="180" y="252" width="12" height="6" fill="#7dff9a"/><rect x="192" y="252" width="12" height="6" fill="#1c4a2b"/><rect x="204" y="252" width="12" height="6" fill="#7dff9a"/><rect x="216" y="252" width="12" height="6" fill="#1c4a2b"/><rect x="228" y="252" width="12" height="6" fill="#7dff9a"/><rect x="240" y="252" width="12" height="6" fill="#1c4a2b"/><rect x="252" y="252" width="12" height="6" fill="#7dff9a"/><rect x="264" y="252" width="12" height="6" fill="#1c4a2b"/><rect x="276" y="252" width="12" height="6" fill="#7dff9a"/><rect x="288" y="252" width="12" height="6" fill="#1c4a2b"/><rect x="300" y="252" width="12" height="6" fill="#7dff9a"/><rect x="312" y="252" width="12" height="6" fill="#1c4a2b"/><rect x="324" y="252" width="12" height="6" fill="#7dff9a"/><rect x="336" y="252" width="12" height="6" fill="#1c4a2b"/><rect x="348" y="252" width="12" height="6" fill="#7dff9a"/><rect x="360" y="252" width="12" height="6" fill="#1c4a2b"/><rect x="372" y="252" width="12" height="6" fill="#7dff9a"/><rect x="384" y="252" width="12" height="6" fill="#1c4a2b"/><rect x="396" y="252" width="12" height="6" fill="#7dff9a"/><rect x="408" y="252" width="12" height="6" fill="#1c4a2b"/><rect x="420" y="252" width="12" height="6" fill="#7dff9a"/><rect x="432" y="252" width="12" height="6" fill="#1c4a2b"/><rect x="444" y="252" width="12" height="6" fill="#7dff9a"/><rect x="456" y="252" width="12" height="6" fill="#1c4a2b"/><rect x="468" y="252" width="12" height="6" fill="#7dff9a"/><rect x="0" y="258" width="480" height="42" fill="#1c4a2b"/><rect x="225" y="204" width="6" height="3" fill="#ffd166"/><rect x="225" y="207" width="6" height="3" fill="#ffd166"/><rect x="222" y="210" width="12" height="3" fill="#a8f0ff"/><rect x="219" y="213" width="6" height="3" fill="#a8f0ff"/><rect x="225" y="213" width="6" height="3" fill="#3aa8d8"/><rect x="231" y="213" width="6" height="3" fill="#a8f0ff"/><rect x="213" y="216" width="6" height="3" fill="#a8f0ff"/><rect x="219" y="216" width="18" height="3" fill="#3aa8d8"/><rect x="237" y="216" width="6" height="3" fill="#a8f0ff"/><rect x="210" y="219" width="3" height="3" fill="#a8f0ff"/><rect x="213" y="219" width="30" height="3" fill="#3aa8d8"/><rect x="243" y="219" width="3" height="3" fill="#a8f0ff"/><rect x="207" y="222" width="3" height="3" fill="#a8f0ff"/><rect x="210" y="222" width="6" height="3" fill="#3aa8d8"/><rect x="216" y="222" width="6" height="3" fill="#14536e"/><rect x="222" y="222" width="12" height="3" fill="#3aa8d8"/><rect x="234" y="222" width="6" height="3" fill="#14536e"/><rect x="240" y="222" width="6" height="3" fill="#3aa8d8"/><rect x="246" y="222" width="3" height="3" fill="#a8f0ff"/><rect x="207" y="225" width="3" height="3" fill="#a8f0ff"/><rect x="210" y="225" width="6" height="3" fill="#14536e"/><rect x="222" y="225" width="12" height="3" fill="#a8f0ff"/><rect x="240" y="225" width="6" height="3" fill="#14536e"/><rect x="246" y="225" width="3" height="3" fill="#a8f0ff"/><rect x="198" y="186" width="60" height="3" fill="#66e2ff" opacity="0.8"/><rect x="198" y="186" width="3" height="9" fill="#66e2ff" opacity="0.8"/><rect x="255" y="186" width="3" height="9" fill="#66e2ff" opacity="0.8"/><rect x="0" y="0" width="480" height="1" fill="#000" opacity="0.26"/><rect x="0" y="3" width="480" height="1" fill="#000" opacity="0.26"/><rect x="0" y="6" width="480" height="1" fill="#000" opacity="0.26"/><rect x="0" y="9" width="480" height="1" fill="#000" opacity="0.26"/><rect x="0" y="12" width="480" height="1" fill="#000" opacity="0.26"/><rect x="0" y="15" width="480" height="1" fill="#000" opacity="0.26"/><rect x="0" y="18" width="480" height="1" fill="#000" opacity="0.26"/><rect x="0" y="21" width="480" height="1" fill="#000" opacity="0.26"/><rect x="0" y="24" width="480" height="1" fill="#000" opacity="0.26"/><rect x="0" y="27" width="480" height="1" fill="#000" opacity="0.26"/><rect x="0" y="30" width="480" height="1" fill="#000" opacity="0.26"/><rect x="0" y="33" width="480" height="1" fill="#000" opacity="0.26"/><rect x="0" y="36" width="480" height="1" fill="#000" opacity="0.26"/><rect x="0" y="39" width="480" height="1" fill="#000" opacity="0.26"/><rect x="0" y="42" width="480" height="1" fill="#000" opacity="0.26"/><rect x="0" y="45" width="480" height="1" fill="#000" opacity="0.26"/><rect x="0" y="48" width="480" height="1" fill="#000" opacity="0.26"/><rect x="0" y="51" width="480" height="1" fill="#000" opacity="0.26"/><rect x="0" y="54" width="480" height="1" fill="#000" opacity="0.26"/><rect x="0" y="57" width="480" height="1" fill="#000" opacity="0.26"/><rect x="0" y="60" width="480" height="1" fill="#000" opacity="0.26"/><rect x="0" y="63" width="480" height="1" fill="#000" opacity="0.26"/><rect x="0" y="66" width="480" height="1" fill="#000" opacity="0.26"/><rect x="0" y="69" width="480" height="1" fill="#000" opacity="0.26"/><rect x="0" y="72" width="480" height="1" fill="#000" opacity="0.26"/><rect x="0" y="75" width="480" height="1" fill="#000" opacity="0.26"/><rect x="0" y="78" width="480" height="1" fill="#000" opacity="0.26"/><rect x="0" y="81" width="480" height="1" fill="#000" opacity="0.26"/><rect x="0" y="84" width="480" height="1" fill="#000" opacity="0.26"/><rect x="0" y="87" width="480" height="1" fill="#000" opacity="0.26"/><rect x="0" y="90" width="480" height="1" fill="#000" opacity="0.26"/><rect x="0" y="93" width="480" height="1" fill="#000" opacity="0.26"/><rect x="0" y="96" width="480" height="1" fill="#000" opacity="0.26"/><rect x="0" y="99" width="480" height="1" fill="#000" opacity="0.26"/><rect x="0" y="102" width="480" height="1" fill="#000" opacity="0.26"/><rect x="0" y="105" width="480" height="1" fill="#000" opacity="0.26"/><rect x="0" y="108" width="480" height="1" fill="#000" opacity="0.26"/><rect x="0" y="111" width="480" height="1" fill="#000" opacity="0.26"/><rect x="0" y="114" width="480" height="1" fill="#000" opacity="0.26"/><rect x="0" y="117" width="480" height="1" fill="#000" opacity="0.26"/><rect x="0" y="120" width="480" height="1" fill="#000" opacity="0.26"/><rect x="0" y="123" width="480" height="1" fill="#000" opacity="0.26"/><rect x="0" y="126" width="480" height="1" fill="#000" opacity="0.26"/><rect x="0" y="129" width="480" height="1" fill="#000" opacity="0.26"/><rect x="0" y="132" width="480" height="1" fill="#000" opacity="0.26"/><rect x="0" y="135" width="480" height="1" fill="#000" opacity="0.26"/><rect x="0" y="138" width="480" height="1" fill="#000" opacity="0.26"/><rect x="0" y="141" width="480" height="1" fill="#000" opacity="0.26"/><rect x="0" y="144" width="480" height="1" fill="#000" opacity="0.26"/><rect x="0" y="147" width="480" height="1" fill="#000" opacity="0.26"/><rect x="0" y="150" width="480" height="1" fill="#000" opacity="0.26"/><rect x="0" y="153" width="480" height="1" fill="#000" opacity="0.26"/><rect x="0" y="156" width="480" height="1" fill="#000" opacity="0.26"/><rect x="0" y="159" width="480" height="1" fill="#000" opacity="0.26"/><rect x="0" y="162" width="480" height="1" fill="#000" opacity="0.26"/><rect x="0" y="165" width="480" height="1" fill="#000" opacity="0.26"/><rect x="0" y="168" width="480" height="1" fill="#000" opacity="0.26"/><rect x="0" y="171" width="480" height="1" fill="#000" opacity="0.26"/><rect x="0" y="174" width="480" height="1" fill="#000" opacity="0.26"/><rect x="0" y="177" width="480" height="1" fill="#000" opacity="0.26"/><rect x="0" y="180" width="480" height="1" fill="#000" opacity="0.26"/><rect x="0" y="183" width="480" height="1" fill="#000" opacity="0.26"/><rect x="0" y="186" width="480" height="1" fill="#000" opacity="0.26"/><rect x="0" y="189" width="480" height="1" fill="#000" opacity="0.26"/><rect x="0" y="192" width="480" height="1" fill="#000" opacity="0.26"/><rect x="0" y="195" width="480" height="1" fill="#000" opacity="0.26"/><rect x="0" y="198" width="480" height="1" fill="#000" opacity="0.26"/><rect x="0" y="201" width="480" height="1" fill="#000" opacity="0.26"/><rect x="0" y="204" width="480" height="1" fill="#000" opacity="0.26"/><rect x="0" y="207" width="480" height="1" fill="#000" opacity="0.26"/><rect x="0" y="210" width="480" height="1" fill="#000" opacity="0.26"/><rect x="0" y="213" width="480" height="1" fill="#000" opacity="0.26"/><rect x="0" y="216" width="480" height="1" fill="#000" opacity="0.26"/><rect x="0" y="219" width="480" height="1" fill="#000" opacity="0.26"/><rect x="0" y="222" width="480" height="1" fill="#000" opacity="0.26"/><rect x="0" y="225" width="480" height="1" fill="#000" opacity="0.26"/><rect x="0" y="228" width="480" height="1" fill="#000" opacity="0.26"/><rect x="0" y="231" width="480" height="1" fill="#000" opacity="0.26"/><rect x="0" y="234" width="480" height="1" fill="#000" opacity="0.26"/><rect x="0" y="237" width="480" height="1" fill="#000" opacity="0.26"/><rect x="0" y="240" width="480" height="1" fill="#000" opacity="0.26"/><rect x="0" y="243" width="480" height="1" fill="#000" opacity="0.26"/><rect x="0" y="246" width="480" height="1" fill="#000" opacity="0.26"/><rect x="0" y="249" width="480" height="1" fill="#000" opacity="0.26"/><rect x="0" y="252" width="480" height="1" fill="#000" opacity="0.26"/><rect x="0" y="255" width="480" height="1" fill="#000" opacity="0.26"/><rect x="0" y="258" width="480" height="1" fill="#000" opacity="0.26"/><rect x="0" y="261" width="480" height="1" fill="#000" opacity="0.26"/><rect x="0" y="264" width="480" height="1" fill="#000" opacity="0.26"/><rect x="0" y="267" width="480" height="1" fill="#000" opacity="0.26"/><rect x="0" y="270" width="480" height="1" fill="#000" opacity="0.26"/><rect x="0" y="273" width="480" height="1" fill="#000" opacity="0.26"/><rect x="0" y="276" width="480" height="1" fill="#000" opacity="0.26"/><rect x="0" y="279" width="480" height="1" fill="#000" opacity="0.26"/><rect x="0" y="282" width="480" height="1" fill="#000" opacity="0.26"/><rect x="0" y="285" width="480" height="1" fill="#000" opacity="0.26"/><rect x="0" y="288" width="480" height="1" fill="#000" opacity="0.26"/><rect x="0" y="291" width="480" height="1" fill="#000" opacity="0.26"/><rect x="0" y="294" width="480" height="1" fill="#000" opacity="0.26"/><rect x="0" y="297" width="480" height="1" fill="#000" opacity="0.26"/></svg>