<svg xmlns="http://www.w3.org/2000/svg" viewBox="0 0 480 300" width="480" height="300" shape-rendering="crispEdges" role="img"><title>Worm Chase</title><rect width="480" height="300" fill="#060c0e"/><rect x="20" y="0" width="1" height="300" fill="#7edcb4" opacity="0.055"/><rect x="40" y="0" width="1" height="300" fill="#7edcb4" opacity="0.055"/><rect x="60" y="0" width="1" height="300" fill="#7edcb4" opacity="0.055"/><rect x="80" y="0" width="1" height="300" fill="#7edcb4" opacity="0.055"/><rect x="100" y="0" width="1" height="300" fill="#7edcb4" opacity="0.055"/><rect x="120" y="0" width="1" height="300" fill="#7edcb4" opacity="0.055"/><rect x="140" y="0" width="1" height="300" fill="#7edcb4" opacity="0.055"/><rect x="160" y="0" width="1" height="300" fill="#7edcb4" opacity="0.055"/><rect x="180" y="0" width="1" height="300" fill="#7edcb4" opacity="0.055"/><rect x="200" y="0" width="1" height="300" fill="#7edcb4" opacity="0.055"/><rect x="220" y="0" width="1" height="300" fill="#7edcb4" opacity="0.055"/><rect x="240" y="0" width="1" height="300" fill="#7edcb4" opacity="0.055"/><rect x="260" y="0" width="1" height="300" fill="#7edcb4" opacity="0.055"/><rect x="280" y="0" width="1" height="300" fill="#7edcb4" opacity="0.055"/><rect x="300" y="0" width="1" height="300" fill="#7edcb4" opacity="0.055"/><rect x="320" y="0" width="1" height="300" fill="#7edcb4" opacity="0.055"/><rect x="340" y="0" width="1" height="300" fill="#7edcb4" opacity="0.055"/><rect x="360" y="0" width="1" height="300" fill="#7edcb4" opacity="0.055"/><rect x="380" y="0" width="1" height="300" fill="#7edcb4" opacity="0.055"/><rect x="400" y="0" width="1" height="300" fill="#7edcb4" opacity="0.055"/><rect x="420" y="0" width="1" height="300" fill="#7edcb4" opacity="0.055"/><rect x="440" y="0" width="1" height="300" fill="#7edcb4" opacity="0.055"/><rect x="460" y="0" width="1" height="300" fill="#7edcb4" opacity="0.055"/><rect x="0" y="20" width="480" height="1" fill="#7edcb4" opacity="0.055"/><rect x="0" y="40" width="480" height="1" fill="#7edcb4" opacity="0.055"/><rect x="0" y="60" width="480" height="1" fill="#7edcb4" opacity="0.055"/><rect x="0" y="80" width="480" height="1" fill="#7edcb4" opacity="0.055"/><rect x="0" y="100" width="480" height="1" fill="#7edcb4" opacity="0.055"/><rect x="0" y="120" width="480" height="1" fill="#7edcb4" opacity="0.055"/><rect x="0" y="140" width="480" height="1" fill="#7edcb4" opacity="0.055"/><rect x="0" y="160" width="480" height="1" fill="#7edcb4" opacity="0.055"/><rect x="0" y="180" width="480" height="1" fill="#7edcb4" opacity="0.055"/><rect x="0" y="200" width="480" height="1" fill="#7edcb4" opacity="0.055"/><rect x="0" y="220" width="480" height="1" fill="#7edcb4" opacity="0.055"/><rect x="0" y="240" width="480" height="1" fill="#7edcb4" opacity="0.055"/><rect x="0" y="260" width="480" height="1" fill="#7edcb4" opacity="0.055"/><rect x="0" y="280" width="480" height="1" fill="#7edcb4" opacity="0.055"/><rect x="100" y="60" width="20" height="20" fill="#1d4a3a"/><rect x="120" y="60" width="20" height="20" fill="#18382a"/><rect x="140" y="60" width="20" height="20" fill="#1b4032"/><rect x="160" y="60" width="20" height="20" fill="#1d4a3a"/><rect x="180" y="60" width="20" height="20" fill="#18382a"/><rect x="200" y="60" width="20" height="20" fill="#1b4032"/><rect x="220" y="60" width="20" height="20" fill="#1d4a3a"/><rect x="240" y="60" width="20" height="20" fill="#18382a"/><rect x="100" y="80" width="20" height="20" fill="#18382a"/><rect x="120" y="80" width="20" height="20" fill="#1b4032"/><rect x="140" y="80" width="20" height="20" fill="#1d4a3a"/><rect x="160" y="80" width="20" height="20" fill="#18382a"/><rect x="180" y="80" width="20" height="20" fill="#1b4032"/><rect x="200" y="80" width="20" height="20" fill="#1d4a3a"/><rect x="220" y="80" width="20" height="20" fill="#18382a"/><rect x="240" y="80" width="20" height="20" fill="#1b4032"/><rect x="100" y="100" width="20" height="20" fill="#1b4032"/><rect x="120" y="100" width="20" height="20" fill="#1d4a3a"/><rect x="140" y="100" width="20" height="20" fill="#18382a"/><rect x="160" y="100" width="20" height="20" fill="#1b4032"/><rect x="180" y="100" width="20" height="20" fill="#1d4a3a"/><rect x="200" y="100" width="20" height="20" fill="#18382a"/><rect x="220" y="100" width="20" height="20" fill="#1b4032"/><rect x="240" y="100" width="20" height="20" fill="#1d4a3a"/><rect x="100" y="120" width="20" height="20" fill="#1d4a3a"/><rect x="120" y="120" width="20" height="20" fill="#18382a"/><rect x="140" y="120" width="20" height="20" fill="#1b4032"/><rect x="160" y="120" width="20" height="20" fill="#1d4a3a"/><rect x="180" y="120" width="20" height="20" fill="#18382a"/><rect x="200" y="120" width="20" height="20" fill="#1b4032"/><rect x="220" y="120" width="20" height="20" fill="#1d4a3a"/><rect x="240" y="120" width="20" height="20" fill="#18382a"/><rect x="100" y="140" width="20" height="20" fill="#18382a"/><rect x="120" y="140" width="20" height="20" fill="#1b4032"/><rect x="140" y="140" width="20" height="20" fill="#1d4a3a"/><rect x="160" y="140" width="20" height="20" fill="#18382a"/><rect x="180" y="140" width="20" height="20" fill="#1b4032"/><rect x="200" y="140" width="20" height="20" fill="#1d4a3a"/><rect x="220" y="140" width="20" height="20" fill="#18382a"/><rect x="240" y="140" width="20" height="20" fill="#1b4032"/><rect x="100" y="160" width="20" height="20" fill="#1b4032"/><rect x="120" y="160" width="20" height="20" fill="#1d4a3a"/><rect x="140" y="160" width="20" height="20" fill="#18382a"/><rect x="160" y="160" width="20" height="20" fill="#1b4032"/><rect x="180" y="160" width="20" height="20" fill="#1d4a3a"/><rect x="200" y="160" width="20" height="20" fill="#18382a"/><rect x="220" y="160" width="20" height="20" fill="#1b4032"/><rect x="240" y="160" width="20" height="20" fill="#1d4a3a"/><rect x="100" y="180" width="20" height="20" fill="#1d4a3a"/><rect x="120" y="180" width="20" height="20" fill="#18382a"/><rect x="140" y="180" width="20" height="20" fill="#1b4032"/><rect x="160" y="180" width="20" height="20" fill="#1d4a3a"/><rect x="180" y="180" width="20" height="20" fill="#18382a"/><rect x="200" y="180" width="20" height="20" fill="#1b4032"/><rect x="220" y="180" width="20" height="20" fill="#1d4a3a"/><rect x="240" y="180" width="20" height="20" fill="#18382a"/><rect x="100" y="200" width="20" height="20" fill="#18382a"/><rect x="120" y="200" width="20" height="20" fill="#1b4032"/><rect x="140" y="200" width="20" height="20" fill="#1d4a3a"/><rect x="160" y="200" width="20" height="20" fill="#18382a"/><rect x="180" y="200" width="20" height="20" fill="#1b4032"/><rect x="200" y="200" width="20" height="20" fill="#1d4a3a"/><rect x="220" y="200" width="20" height="20" fill="#18382a"/><rect x="240" y="200" width="20" height="20" fill="#1b4032"/><rect x="100" y="60" width="2" height="20" fill="#5ef08a"/><rect x="100" y="60" width="20" height="2" fill="#5ef08a"/><rect x="120" y="60" width="20" height="2" fill="#5ef08a"/><rect x="140" y="60" width="20" height="2" fill="#5ef08a"/><rect x="160" y="60" width="20" height="2" fill="#5ef08a"/><rect x="180" y="60" width="20" height="2" fill="#5ef08a"/><rect x="200" y="60" width="20" height="2" fill="#5ef08a"/><rect x="220" y="60" width="20" height="2" fill="#5ef08a"/><rect x="258" y="60" width="2" height="20" fill="#5ef08a"/><rect x="240" y="60" width="20" height="2" fill="#5ef08a"/><rect x="100" y="80" width="2" height="20" fill="#5ef08a"/><rect x="258" y="80" width="2" height="20" fill="#5ef08a"/><rect x="100" y="100" width="2" height="20" fill="#5ef08a"/><rect x="258" y="100" width="2" height="20" fill="#5ef08a"/><rect x="100" y="120" width="2" height="20" fill="#5ef08a"/><rect x="258" y="120" width="2" height="20" fill="#5ef08a"/><rect x="100" y="140" width="2" height="20" fill="#5ef08a"/><rect x="258" y="140" width="2" height="20" fill="#5ef08a"/><rect x="100" y="160" width="2" height="20" fill="#5ef08a"/><rect x="258" y="160" width="2" height="20" fill="#5ef08a"/><rect x="100" y="180" width="2" height="20" fill="#5ef08a"/><rect x="258" y="180" width="2" height="20" fill="#5ef08a"/><rect x="100" y="200" width="2" height="20" fill="#5ef08a"/><rect x="100" y="218" width="20" height="2" fill="#5ef08a"/><rect x="120" y="218" width="20" height="2" fill="#5ef08a"/><rect x="140" y="218" width="20" height="2" fill="#5ef08a"/><rect x="160" y="218" width="20" height="2" fill="#5ef08a"/><rect x="180" y="218" width="20" height="2" fill="#5ef08a"/><rect x="200" y="218" width="20" height="2" fill="#5ef08a"/><rect x="220" y="218" width="20" height="2" fill="#5ef08a"/><rect x="258" y="200" width="2" height="20" fill="#5ef08a"/><rect x="240" y="218" width="20" height="2" fill="#5ef08a"/><rect x="265" y="105" width="10" height="10" fill="#7cf2ff"/><rect x="285" y="105" width="10" height="10" fill="#7cf2ff"/><rect x="305" y="105" width="10" height="10" fill="#7cf2ff"/><rect x="305" y="125" width="10" height="10" fill="#7cf2ff"/><rect x="305" y="145" width="10" height="10" fill="#7cf2ff"/><rect x="88" y="22" width="4" height="2" fill="#ffb02e"/><rect x="86" y="24" width="8" height="2" fill="#ffb02e"/><rect x="84" y="26" width="4" height="2" fill="#ffb02e"/><rect x="88" y="26" width="4" height="2" fill="#6d3a05"/><rect x="92" y="26" width="4" height="2" fill="#ffb02e"/><rect x="82" y="28" width="4" height="2" fill="#ffb02e"/><rect x="86" y="28" width="8" height="2" fill="#6d3a05"/><rect x="94" y="28" width="4" height="2" fill="#ffb02e"/><rect x="82" y="30" width="4" height="2" fill="#ffb02e"/><rect x="86" y="30" width="8" height="2" fill="#6d3a05"/><rect x="94" y="30" width="4" height="2" fill="#ffb02e"/><rect x="84" y="32" width="4" height="2" fill="#ffb02e"/><rect x="88" y="32" width="4" height="2" fill="#6d3a05"/><rect x="92" y="32" width="4" height="2" fill="#ffb02e"/><rect x="86" y="34" width="8" height="2" fill="#ffb02e"/><rect x="88" y="36" width="4" height="2" fill="#ffb02e"/><rect x="328" y="22" width="4" height="2" fill="#ffb02e"/><rect x="326" y="24" width="8" height="2" fill="#ffb02e"/><rect x="324" y="26" width="4" height="2" fill="#ffb02e"/><rect x="328" y="26" width="4" height="2" fill="#6d3a05"/><rect x="332" y="26" width="4" height="2" fill="#ffb02e"/><rect x="322" y="28" width="4" height="2" fill="#ffb02e"/><rect x="326" y="28" width="8" height="2" fill="#6d3a05"/><rect x="334" y="28" width="4" height="2" fill="#ffb02e"/><rect x="322" y="30" width="4" height="2" fill="#ffb02e"/><rect x="326" y="30" width="8" height="2" fill="#6d3a05"/><rect x="334" y="30" width="4" height="2" fill="#ffb02e"/><rect x="324" y="32" width="4" height="2" fill="#ffb02e"/><rect x="328" y="32" width="4" height="2" fill="#6d3a05"/><rect x="332" y="32" width="4" height="2" fill="#ffb02e"/><rect x="326" y="34" width="8" height="2" fill="#ffb02e"/><rect x="328" y="36" width="4" height="2" fill="#ffb02e"/><rect x="346" y="82" width="8" height="2" fill="#ff4d6d"/><rect x="344" y="84" width="12" height="2" fill="#ff4d6d"/><rect x="342" y="86" width="4" height="2" fill="#ff4d6d"/><rect x="346" y="86" width="2" height="2" fill="#04140c"/><rect x="348" y="86" width="4" height="2" fill="#ff4d6d"/><rect x="352" y="86" width="2" height="2" fill="#04140c"/><rect x="354" y="86" width="4" height="2" fill="#ff4d6d"/><rect x="342" y="88" width="4" height="2" fill="#ff4d6d"/><rect x="346" y="88" width="2" height="2" fill="#04140c"/><rect x="348" y="88" width="4" height="2" fill="#ff4d6d"/><rect x="352" y="88" width="2" height="2" fill="#04140c"/><rect x="354" y="88" width="4" height="2" fill="#ff4d6d"/><rect x="342" y="90" width="16" height="2" fill="#ff4d6d"/><rect x="342" y="92" width="2" height="2" fill="#ff4d6d"/><rect x="344" y="92" width="2" height="2" fill="#7a0f24"/><rect x="346" y="92" width="8" height="2" fill="#ff4d6d"/><rect x="354" y="92" width="2" height="2" fill="#7a0f24"/><rect x="356" y="92" width="2" height="2" fill="#ff4d6d"/><rect x="344" y="94" width="2" height="2" fill="#ff4d6d"/><rect x="348" y="94" width="4" height="2" fill="#ff4d6d"/><rect x="354" y="94" width="2" height="2" fill="#ff4d6d"/><rect x="342" y="96" width="2" height="2" fill="#7a0f24"/><rect x="348" y="96" width="4" height="2" fill="#ff4d6d"/><rect x="356" y="96" width="2" height="2" fill="#7a0f24"/><rect x="306" y="162" width="8" height="2" fill="#9dffc0"/><rect x="304" y="164" width="2" height="2" fill="#9dffc0"/><rect x="306" y="164" width="8" height="2" fill="#38d97a"/><rect x="314" y="164" width="2" height="2" fill="#9dffc0"/><rect x="302" y="166" width="2" height="2" fill="#9dffc0"/><rect x="304" y="166" width="2" height="2" fill="#38d97a"/><rect x="306" y="166" width="4" height="2" fill="#04140c"/><rect x="310" y="166" width="6" height="2" fill="#38d97a"/><rect x="316" y="166" width="2" height="2" fill="#9dffc0"/><rect x="302" y="168" width="2" height="2" fill="#9dffc0"/><rect x="304" y="168" width="12" height="2" fill="#38d97a"/><rect x="316" y="168" width="2" height="2" fill="#9dffc0"/><rect x="302" y="170" width="2" height="2" fill="#9dffc0"/><rect x="304" y="170" width="12" height="2" fill="#38d97a"/><rect x="316" y="170" width="2" height="2" fill="#9dffc0"/><rect x="302" y="172" width="2" height="2" fill="#9dffc0"/><rect x="304" y="172" width="2" height="2" fill="#38d97a"/><rect x="306" y="172" width="4" height="2" fill="#04140c"/><rect x="310" y="172" width="6" height="2" fill="#38d97a"/><rect x="316" y="172" width="2" height="2" fill="#9dffc0"/><rect x="304" y="174" width="2" height="2" fill="#9dffc0"/><rect x="306" y="174" width="8" height="2" fill="#38d97a"/><rect x="314" y="174" width="2" height="2" fill="#9dffc0"/><rect x="306" y="176" width="8" height="2" fill="#9dffc0"/><rect x="328" y="202" width="4" height="2" fill="#ffb02e"/><rect x="326" y="204" width="8" height="2" fill="#ffb02e"/><rect x="324" y="206" width="4" height="2" fill="#ffb02e"/><rect x="328" y="206" width="4" height="2" fill="#6d3a05"/><rect x="332" y="206" width="4" height="2" fill="#ffb02e"/><rect x="322" y="208" width="4" height="2" fill="#ffb02e"/><rect x="326" y="208" width="8" height="2" fill="#6d3a05"/><rect x="334" y="208" width="4" height="2" fill="#ffb02e"/><rect x="322" y="210" width="4" height="2" fill="#ffb02e"/><rect x="326" y="210" width="8" height="2" fill="#6d3a05"/><rect x="334" y="210" width="4" height="2" fill="#ffb02e"/><rect x="324" y="212" width="4" height="2" fill="#ffb02e"/><rect x="328" y="212" width="4" height="2" fill="#6d3a05"/><rect x="332" y="212" width="4" height="2" fill="#ffb02e"/><rect x="326" y="214" width="8" height="2" fill="#ffb02e"/><rect x="328" y="216" width="4" height="2" fill="#ffb02e"/><rect x="128" y="242" width="4" height="2" fill="#ffb02e"/><rect x="126" y="244" width="8" height="2" fill="#ffb02e"/><rect x="124" y="246" width="4" height="2" fill="#ffb02e"/><rect x="128" y="246" width="4" height="2" fill="#6d3a05"/><rect x="132" y="246" width="4" height="2" fill="#ffb02e"/><rect x="122" y="248" width="4" height="2" fill="#ffb02e"/><rect x="126" y="248" width="8" height="2" fill="#6d3a05"/><rect x="134" y="248" width="4" height="2" fill="#ffb02e"/><rect x="122" y="250" width="4" height="2" fill="#ffb02e"/><rect x="126" y="250" width="8" height="2" fill="#6d3a05"/><rect x="134" y="250" width="4" height="2" fill="#ffb02e"/><rect x="124" y="252" width="4" height="2" fill="#ffb02e"/><rect x="128" y="252" width="4" height="2" fill="#6d3a05"/><rect x="132" y="252" width="4" height="2" fill="#ffb02e"/><rect x="126" y="254" width="8" height="2" fill="#ffb02e"/><rect x="128" y="256" width="4" height="2" fill="#ffb02e"/></svg>