<svg xmlns="http://www.w3.org/2000/svg" viewBox="0 0 480 300" width="480" height="300" shape-rendering="crispEdges" role="img"><title>Starfield Runner</title><rect x="0" y="0" width="480" height="300" fill="#050916"/><rect x="45" y="270" width="3" height="3" fill="#2b3a5c"/><rect x="90" y="69" width="3" height="3" fill="#2b3a5c"/><rect x="429" y="237" width="3" height="3" fill="#2b3a5c"/><rect x="180" y="126" width="3" height="3" fill="#2b3a5c"/><rect x="24" y="120" width="3" height="3" fill="#2b3a5c"/><rect x="99" y="162" width="3" height="3" fill="#2b3a5c"/><rect x="63" y="279" width="3" height="3" fill="#2b3a5c"/><rect x="333" y="147" width="3" height="3" fill="#2b3a5c"/><rect x="69" y="123" width="3" height="3" fill="#2b3a5c"/><rect x="207" y="213" width="3" height="3" fill="#2b3a5c"/><rect x="345" y="24" width="3" height="3" fill="#2b3a5c"/><rect x="150" y="159" width="3" height="3" fill="#2b3a5c"/><rect x="102" y="261" width="3" height="3" fill="#2b3a5c"/><rect x="297" y="153" width="3" height="3" fill="#2b3a5c"/><rect x="21" y="87" width="3" height="3" fill="#2b3a5c"/><rect x="168" y="144" width="3" height="3" fill="#2b3a5c"/><rect x="447" y="261" width="3" height="3" fill="#2b3a5c"/><rect x="159" y="255" width="3" height="3" fill="#2b3a5c"/><rect x="255" y="273" width="3" height="3" fill="#2b3a5c"/><rect x="123" y="267" width="3" height="3" fill="#2b3a5c"/><rect x="351" y="288" width="3" height="3" fill="#2b3a5c"/><rect x="210" y="147" width="3" height="3" fill="#2b3a5c"/><rect x="162" y="282" width="3" height="3" fill="#2b3a5c"/><rect x="291" y="105" width="3" height="3" fill="#2b3a5c"/><rect x="330" y="0" width="3" height="3" fill="#2b3a5c"/><rect x="63" y="96" width="3" height="3" fill="#2b3a5c"/><rect x="375" y="216" width="3" height="3" fill="#2b3a5c"/><rect x="75" y="270" width="3" height="3" fill="#2b3a5c"/><rect x="30" y="87" width="3" height="3" fill="#2b3a5c"/><rect x="351" y="246" width="3" height="3" fill="#2b3a5c"/><rect x="123" y="261" width="3" height="3" fill="#2b3a5c"/><rect x="36" y="267" width="3" height="3" fill="#2b3a5c"/><rect x="9" y="63" width="3" height="3" fill="#2b3a5c"/><rect x="315" y="165" width="3" height="3" fill="#2b3a5c"/><rect x="198" y="297" width="3" height="3" fill="#2b3a5c"/><rect x="390" y="183" width="3" height="3" fill="#2b3a5c"/><rect x="291" y="225" width="3" height="3" fill="#2b3a5c"/><rect x="303" y="24" width="3" height="3" fill="#2b3a5c"/><rect x="405" y="132" width="3" height="3" fill="#2b3a5c"/><rect x="378" y="204" width="3" height="3" fill="#2b3a5c"/><rect x="12" y="84" width="3" height="3" fill="#2b3a5c"/><rect x="129" y="30" width="3" height="3" fill="#2b3a5c"/><rect x="90" y="36" width="3" height="3" fill="#2b3a5c"/><rect x="252" y="72" width="3" height="3" fill="#2b3a5c"/><rect x="6" y="183" width="3" height="3" fill="#2b3a5c"/><rect x="216" y="177" width="3" height="3" fill="#2b3a5c"/><rect x="474" y="300" width="3" height="3" fill="#2b3a5c"/><rect x="258" y="18" width="3" height="3" fill="#2b3a5c"/><rect x="72" y="228" width="3" height="3" fill="#2b3a5c"/><rect x="216" y="0" width="3" height="3" fill="#2b3a5c"/><rect x="462" y="273" width="3" height="3" fill="#2b3a5c"/><rect x="243" y="108" width="3" height="3" fill="#2b3a5c"/><rect x="435" y="285" width="3" height="3" fill="#2b3a5c"/><rect x="366" y="168" width="3" height="3" fill="#2b3a5c"/><rect x="294" y="36" width="3" height="3" fill="#2b3a5c"/><rect x="432" y="66" width="3" height="3" fill="#2b3a5c"/><rect x="333" y="42" width="3" height="3" fill="#2b3a5c"/><rect x="234" y="48" width="3" height="3" fill="#2b3a5c"/><rect x="357" y="201" width="3" height="3" fill="#2b3a5c"/><rect x="219" y="135" width="3" height="3" fill="#2b3a5c"/><rect x="282" y="48" width="3" height="3" fill="#2b3a5c"/><rect x="156" y="285" width="3" height="3" fill="#2b3a5c"/><rect x="264" y="162" width="3" height="3" fill="#2b3a5c"/><rect x="396" y="219" width="3" height="3" fill="#2b3a5c"/><rect x="9" y="225" width="3" height="3" fill="#2b3a5c"/><rect x="174" y="42" width="3" height="3" fill="#2b3a5c"/><rect x="198" y="291" width="3" height="3" fill="#2b3a5c"/><rect x="78" y="111" width="3" height="3" fill="#2b3a5c"/><rect x="420" y="168" width="3" height="3" fill="#2b3a5c"/><rect x="381" y="87" width="3" height="3" fill="#2b3a5c"/><rect x="111" y="282" width="3" height="3" fill="#4f6a99"/><rect x="240" y="171" width="3" height="3" fill="#4f6a99"/><rect x="183" y="276" width="3" height="3" fill="#4f6a99"/><rect x="402" y="66" width="3" height="3" fill="#4f6a99"/><rect x="348" y="225" width="3" height="3" fill="#4f6a99"/><rect x="75" y="153" width="3" height="3" fill="#4f6a99"/><rect x="321" y="273" width="3" height="3" fill="#4f6a99"/><rect x="87" y="279" width="3" height="3" fill="#4f6a99"/><rect x="282" y="255" width="3" height="3" fill="#4f6a99"/><rect x="222" y="42" width="3" height="3" fill="#4f6a99"/><rect x="12" y="243" width="3" height="3" fill="#4f6a99"/><rect x="444" y="93" width="3" height="3" fill="#4f6a99"/><rect x="153" y="288" width="3" height="3" fill="#4f6a99"/><rect x="33" y="294" width="3" height="3" fill="#4f6a99"/><rect x="207" y="153" width="3" height="3" fill="#4f6a99"/><rect x="96" y="138" width="3" height="3" fill="#4f6a99"/><rect x="138" y="291" width="3" height="3" fill="#4f6a99"/><rect x="12" y="84" width="3" height="3" fill="#4f6a99"/><rect x="141" y="177" width="3" height="3" fill="#4f6a99"/><rect x="468" y="135" width="3" height="3" fill="#4f6a99"/><rect x="420" y="258" width="3" height="3" fill="#4f6a99"/><rect x="477" y="54" width="3" height="3" fill="#4f6a99"/><rect x="258" y="78" width="3" height="3" fill="#4f6a99"/><rect x="438" y="159" width="3" height="3" fill="#4f6a99"/><rect x="225" y="81" width="3" height="3" fill="#4f6a99"/><rect x="93" y="147" width="3" height="3" fill="#4f6a99"/><rect x="87" y="21" width="3" height="3" fill="#4f6a99"/><rect x="369" y="72" width="3" height="3" fill="#4f6a99"/><rect x="147" y="228" width="3" height="3" fill="#4f6a99"/><rect x="276" y="81" width="3" height="3" fill="#4f6a99"/><rect x="387" y="159" width="3" height="3" fill="#4f6a99"/><rect x="192" y="66" width="3" height="3" fill="#4f6a99"/><rect x="153" y="27" width="3" height="3" fill="#4f6a99"/><rect x="84" y="30" width="3" height="3" fill="#4f6a99"/><rect x="237" y="126" width="3" height="3" fill="#4f6a99"/><rect x="303" y="147" width="3" height="3" fill="#4f6a99"/><rect x="57" y="159" width="3" height="3" fill="#4f6a99"/><rect x="339" y="231" width="3" height="3" fill="#4f6a99"/><rect x="258" y="207" width="3" height="3" fill="#4f6a99"/><rect x="27" y="111" width="3" height="3" fill="#4f6a99"/><rect x="216" y="84" width="6" height="6" fill="#a8c4e8"/><rect x="99" y="162" width="6" height="6" fill="#a8c4e8"/><rect x="42" y="153" width="6" height="6" fill="#a8c4e8"/><rect x="324" y="51" width="6" height="6" fill="#a8c4e8"/><rect x="399" y="12" width="6" height="6" fill="#a8c4e8"/><rect x="264" y="210" width="6" height="6" fill="#a8c4e8"/><rect x="363" y="84" width="6" height="6" fill="#a8c4e8"/><rect x="468" y="147" width="6" height="6" fill="#a8c4e8"/><rect x="201" y="36" width="6" height="6" fill="#a8c4e8"/><rect x="12" y="0" width="6" height="6" fill="#a8c4e8"/><rect x="135" y="63" width="6" height="6" fill="#a8c4e8"/><rect x="258" y="96" width="6" height="6" fill="#a8c4e8"/><rect x="189" y="27" width="6" height="6" fill="#a8c4e8"/><rect x="444" y="120" width="6" height="6" fill="#a8c4e8"/><rect x="306" y="294" width="6" height="6" fill="#a8c4e8"/><rect x="36" y="30" width="6" height="6" fill="#a8c4e8"/><rect x="318" y="0" width="148" height="300" fill="#0d2340"/><rect x="318" y="-18" width="3" height="18" fill="#2f6ea8"/><rect x="463" y="-18" width="3" height="18" fill="#2f6ea8"/><rect x="318" y="18" width="3" height="18" fill="#2f6ea8"/><rect x="463" y="18" width="3" height="18" fill="#2f6ea8"/><rect x="318" y="54" width="3" height="18" fill="#2f6ea8"/><rect x="463" y="54" width="3" height="18" fill="#2f6ea8"/><rect x="318" y="90" width="3" height="18" fill="#2f6ea8"/><rect x="463" y="90" width="3" height="18" fill="#2f6ea8"/><rect x="318" y="126" width="3" height="18" fill="#2f6ea8"/><rect x="463" y="126" width="3" height="18" fill="#2f6ea8"/><rect x="318" y="162" width="3" height="18" fill="#2f6ea8"/><rect x="463" y="162" width="3" height="18" fill="#2f6ea8"/><rect x="318" y="198" width="3" height="18" fill="#2f6ea8"/><rect x="463" y="198" width="3" height="18" fill="#2f6ea8"/><rect x="318" y="234" width="3" height="18" fill="#2f6ea8"/><rect x="463" y="234" width="3" height="18" fill="#2f6ea8"/><rect x="318" y="270" width="3" height="18" fill="#2f6ea8"/><rect x="463" y="270" width="3" height="18" fill="#2f6ea8"/><rect x="159" y="174" width="18" height="3" fill="#7d6a58"/><rect x="159" y="174" width="9" height="3" fill="#a8917a"/><rect x="153" y="177" width="30" height="3" fill="#7d6a58"/><rect x="153" y="177" width="9" height="3" fill="#a8917a"/><rect x="147" y="180" width="42" height="3" fill="#7d6a58"/><rect x="147" y="180" width="9" height="3" fill="#a8917a"/><rect x="144" y="183" width="48" height="3" fill="#7d6a58"/><rect x="144" y="183" width="9" height="3" fill="#a8917a"/><rect x="144" y="186" width="48" height="3" fill="#7d6a58"/><rect x="144" y="186" width="9" height="3" fill="#a8917a"/><rect x="141" y="189" width="54" height="3" fill="#7d6a58"/><rect x="141" y="189" width="9" height="3" fill="#a8917a"/><rect x="141" y="192" width="54" height="3" fill="#7d6a58"/><rect x="141" y="192" width="9" height="3" fill="#a8917a"/><rect x="138" y="195" width="60" height="3" fill="#7d6a58"/><rect x="138" y="198" width="60" height="3" fill="#7d6a58"/><rect x="138" y="201" width="60" height="3" fill="#7d6a58"/><rect x="138" y="204" width="60" height="3" fill="#7d6a58"/><rect x="138" y="207" width="60" height="3" fill="#7d6a58"/><rect x="138" y="210" width="60" height="3" fill="#7d6a58"/><rect x="141" y="213" width="54" height="3" fill="#7d6a58"/><rect x="141" y="216" width="54" height="3" fill="#7d6a58"/><rect x="141" y="216" width="54" height="3" fill="#3d3128"/><rect x="144" y="219" width="48" height="3" fill="#7d6a58"/><rect x="144" y="219" width="48" height="3" fill="#3d3128"/><rect x="144" y="222" width="48" height="3" fill="#7d6a58"/><rect x="144" y="222" width="48" height="3" fill="#3d3128"/><rect x="147" y="225" width="42" height="3" fill="#7d6a58"/><rect x="147" y="225" width="42" height="3" fill="#3d3128"/><rect x="153" y="228" width="30" height="3" fill="#7d6a58"/><rect x="153" y="228" width="30" height="3" fill="#3d3128"/><rect x="159" y="231" width="18" height="3" fill="#7d6a58"/><rect x="159" y="231" width="18" height="3" fill="#3d3128"/><rect x="174" y="201" width="6" height="6" fill="#3d3128"/><rect x="165" y="216" width="6" height="6" fill="#3d3128"/><rect x="153" y="192" width="6" height="6" fill="#3d3128"/><rect x="309" y="165" width="27" height="3" fill="#7d6a58"/><rect x="309" y="165" width="9" height="3" fill="#a8917a"/><rect x="303" y="168" width="39" height="3" fill="#7d6a58"/><rect x="303" y="168" width="9" height="3" fill="#a8917a"/><rect x="300" y="171" width="45" height="3" fill="#7d6a58"/><rect x="300" y="171" width="9" height="3" fill="#a8917a"/><rect x="297" y="174" width="51" height="3" fill="#7d6a58"/><rect x="297" y="174" width="9" height="3" fill="#a8917a"/><rect x="294" y="177" width="57" height="3" fill="#7d6a58"/><rect x="294" y="177" width="9" height="3" fill="#a8917a"/><rect x="291" y="180" width="60" height="3" fill="#7d6a58"/><rect x="291" y="180" width="9" height="3" fill="#a8917a"/><rect x="291" y="183" width="63" height="3" fill="#7d6a58"/><rect x="291" y="183" width="9" height="3" fill="#a8917a"/><rect x="291" y="186" width="63" height="3" fill="#7d6a58"/><rect x="291" y="186" width="9" height="3" fill="#a8917a"/><rect x="288" y="189" width="66" height="3" fill="#7d6a58"/><rect x="288" y="192" width="69" height="3" fill="#7d6a58"/><rect x="288" y="195" width="69" height="3" fill="#7d6a58"/><rect x="288" y="198" width="69" height="3" fill="#7d6a58"/><rect x="288" y="201" width="69" height="3" fill="#7d6a58"/><rect x="288" y="204" width="66" height="3" fill="#7d6a58"/><rect x="291" y="207" width="63" height="3" fill="#7d6a58"/><rect x="291" y="210" width="63" height="3" fill="#7d6a58"/><rect x="291" y="210" width="63" height="3" fill="#3d3128"/><rect x="291" y="213" width="60" height="3" fill="#7d6a58"/><rect x="291" y="213" width="60" height="3" fill="#3d3128"/><rect x="294" y="216" width="57" height="3" fill="#7d6a58"/><rect x="294" y="216" width="57" height="3" fill="#3d3128"/><rect x="297" y="219" width="51" height="3" fill="#7d6a58"/><rect x="297" y="219" width="51" height="3" fill="#3d3128"/><rect x="300" y="222" width="45" height="3" fill="#7d6a58"/><rect x="300" y="222" width="45" height="3" fill="#3d3128"/><rect x="303" y="225" width="39" height="3" fill="#7d6a58"/><rect x="303" y="225" width="39" height="3" fill="#3d3128"/><rect x="309" y="228" width="27" height="3" fill="#7d6a58"/><rect x="309" y="228" width="27" height="3" fill="#3d3128"/><rect x="315" y="192" width="6" height="6" fill="#3d3128"/><rect x="336" y="195" width="6" height="6" fill="#3d3128"/><rect x="315" y="219" width="6" height="6" fill="#3d3128"/><rect x="51" y="84" width="18" height="3" fill="#5e6f78"/><rect x="51" y="84" width="9" height="3" fill="#87a0ad"/><rect x="45" y="87" width="30" height="3" fill="#5e6f78"/><rect x="45" y="87" width="9" height="3" fill="#87a0ad"/><rect x="42" y="90" width="36" height="3" fill="#5e6f78"/><rect x="42" y="90" width="9" height="3" fill="#87a0ad"/><rect x="39" y="93" width="42" height="3" fill="#5e6f78"/><rect x="39" y="93" width="9" height="3" fill="#87a0ad"/><rect x="39" y="96" width="42" height="3" fill="#5e6f78"/><rect x="39" y="96" width="9" height="3" fill="#87a0ad"/><rect x="36" y="99" width="48" height="3" fill="#5e6f78"/><rect x="36" y="99" width="9" height="3" fill="#87a0ad"/><rect x="36" y="102" width="48" height="3" fill="#5e6f78"/><rect x="36" y="105" width="48" height="3" fill="#5e6f78"/><rect x="36" y="108" width="48" height="3" fill="#5e6f78"/><rect x="36" y="111" width="48" height="3" fill="#5e6f78"/><rect x="36" y="114" width="48" height="3" fill="#5e6f78"/><rect x="39" y="117" width="42" height="3" fill="#5e6f78"/><rect x="39" y="117" width="42" height="3" fill="#2c383f"/><rect x="39" y="120" width="42" height="3" fill="#5e6f78"/><rect x="39" y="120" width="42" height="3" fill="#2c383f"/><rect x="42" y="123" width="36" height="3" fill="#5e6f78"/><rect x="42" y="123" width="36" height="3" fill="#2c383f"/><rect x="45" y="126" width="30" height="3" fill="#5e6f78"/><rect x="45" y="126" width="30" height="3" fill="#2c383f"/><rect x="51" y="129" width="18" height="3" fill="#5e6f78"/><rect x="51" y="129" width="18" height="3" fill="#2c383f"/><rect x="66" y="111" width="6" height="6" fill="#2c383f"/><rect x="51" y="114" width="6" height="6" fill="#2c383f"/><rect x="57" y="93" width="6" height="6" fill="#2c383f"/><rect x="243" y="60" width="18" height="3" fill="#6b6f7e"/><rect x="243" y="60" width="9" height="3" fill="#9aa0b2"/><rect x="240" y="63" width="24" height="3" fill="#6b6f7e"/><rect x="240" y="63" width="9" height="3" fill="#9aa0b2"/><rect x="237" y="66" width="30" height="3" fill="#6b6f7e"/><rect x="237" y="66" width="9" height="3" fill="#9aa0b2"/><rect x="234" y="69" width="36" height="3" fill="#6b6f7e"/><rect x="234" y="69" width="9" height="3" fill="#9aa0b2"/><rect x="234" y="72" width="36" height="3" fill="#6b6f7e"/><rect x="234" y="75" width="36" height="3" fill="#6b6f7e"/><rect x="234" y="78" width="36" height="3" fill="#6b6f7e"/><rect x="234" y="81" width="36" height="3" fill="#6b6f7e"/><rect x="234" y="84" width="36" height="3" fill="#6b6f7e"/><rect x="234" y="84" width="36" height="3" fill="#33363f"/><rect x="237" y="87" width="30" height="3" fill="#6b6f7e"/><rect x="237" y="87" width="30" height="3" fill="#33363f"/><rect x="240" y="90" width="24" height="3" fill="#6b6f7e"/><rect x="240" y="90" width="24" height="3" fill="#33363f"/><rect x="243" y="93" width="18" height="3" fill="#6b6f7e"/><rect x="243" y="93" width="18" height="3" fill="#33363f"/><rect x="249" y="81" width="6" height="6" fill="#33363f"/><rect x="252" y="69" width="6" height="6" fill="#33363f"/><rect x="264" y="84" width="6" height="6" fill="#33363f"/><rect x="63" y="237" width="18" height="3" fill="#6b6f7e"/><rect x="63" y="237" width="9" height="3" fill="#9aa0b2"/><rect x="60" y="240" width="24" height="3" fill="#6b6f7e"/><rect x="60" y="240" width="9" height="3" fill="#9aa0b2"/><rect x="57" y="243" width="30" height="3" fill="#6b6f7e"/><rect x="57" y="243" width="9" height="3" fill="#9aa0b2"/><rect x="54" y="246" width="36" height="3" fill="#6b6f7e"/><rect x="54" y="246" width="9" height="3" fill="#9aa0b2"/><rect x="51" y="249" width="42" height="3" fill="#6b6f7e"/><rect x="51" y="249" width="9" height="3" fill="#9aa0b2"/><rect x="51" y="252" width="42" height="3" fill="#6b6f7e"/><rect x="51" y="255" width="42" height="3" fill="#6b6f7e"/><rect x="51" y="258" width="42" height="3" fill="#6b6f7e"/><rect x="51" y="261" width="42" height="3" fill="#6b6f7e"/><rect x="51" y="264" width="42" height="3" fill="#6b6f7e"/><rect x="51" y="264" width="42" height="3" fill="#33363f"/><rect x="54" y="267" width="36" height="3" fill="#6b6f7e"/><rect x="54" y="267" width="36" height="3" fill="#33363f"/><rect x="57" y="270" width="30" height="3" fill="#6b6f7e"/><rect x="57" y="270" width="30" height="3" fill="#33363f"/><rect x="60" y="273" width="24" height="3" fill="#6b6f7e"/><rect x="60" y="273" width="24" height="3" fill="#33363f"/><rect x="63" y="276" width="18" height="3" fill="#6b6f7e"/><rect x="63" y="276" width="18" height="3" fill="#33363f"/><rect x="72" y="264" width="6" height="6" fill="#33363f"/><rect x="63" y="252" width="6" height="6" fill="#33363f"/><rect x="84" y="252" width="6" height="6" fill="#33363f"/><rect x="117" y="24" width="6" height="3" fill="#6b6f7e"/><rect x="117" y="24" width="6" height="3" fill="#9aa0b2"/><rect x="111" y="27" width="18" height="3" fill="#6b6f7e"/><rect x="111" y="27" width="9" height="3" fill="#9aa0b2"/><rect x="108" y="30" width="24" height="3" fill="#6b6f7e"/><rect x="108" y="30" width="9" height="3" fill="#9aa0b2"/><rect x="105" y="33" width="30" height="3" fill="#6b6f7e"/><rect x="105" y="33" width="9" height="3" fill="#9aa0b2"/><rect x="105" y="36" width="30" height="3" fill="#6b6f7e"/><rect x="105" y="36" width="9" height="3" fill="#9aa0b2"/><rect x="102" y="39" width="36" height="3" fill="#6b6f7e"/><rect x="102" y="42" width="36" height="3" fill="#6b6f7e"/><rect x="105" y="45" width="30" height="3" fill="#6b6f7e"/><rect x="105" y="48" width="30" height="3" fill="#6b6f7e"/><rect x="105" y="48" width="30" height="3" fill="#33363f"/><rect x="108" y="51" width="24" height="3" fill="#6b6f7e"/><rect x="108" y="51" width="24" height="3" fill="#33363f"/><rect x="111" y="54" width="18" height="3" fill="#6b6f7e"/><rect x="111" y="54" width="18" height="3" fill="#33363f"/><rect x="117" y="57" width="6" height="3" fill="#6b6f7e"/><rect x="117" y="57" width="6" height="3" fill="#33363f"/><rect x="123" y="45" width="6" height="6" fill="#33363f"/><rect x="114" y="45" width="6" height="6" fill="#33363f"/><rect x="120" y="30" width="6" height="6" fill="#33363f"/><rect x="216" y="204" width="6" height="6" fill="#ffd166" opacity="0.95"/><rect x="213" y="219" width="6" height="6" fill="#ffd166" opacity="0.95"/><rect x="207" y="231" width="6" height="6" fill="#ffd166" opacity="0.95"/><rect x="198" y="240" width="6" height="6" fill="#ffd166" opacity="0.95"/><rect x="189" y="249" width="6" height="6" fill="#ffd166" opacity="0.95"/><rect x="174" y="252" width="6" height="6" fill="#ffd166" opacity="0.95"/><rect x="162" y="252" width="6" height="6" fill="#ffd166" opacity="0.95"/><rect x="147" y="249" width="6" height="6" fill="#ffd166" opacity="0.95"/><rect x="138" y="240" width="6" height="6" fill="#ffd166" opacity="0.95"/><rect x="129" y="231" width="6" height="6" fill="#ffd166" opacity="0.95"/><rect x="123" y="219" width="6" height="6" fill="#ffd166" opacity="0.95"/><rect x="120" y="204" width="6" height="6" fill="#ffd166" opacity="0.95"/><rect x="123" y="189" width="6" height="6" fill="#ffd166" opacity="0.95"/><rect x="129" y="177" width="6" height="6" fill="#ffd166" opacity="0.95"/><rect x="138" y="168" width="6" height="6" fill="#ffd166" opacity="0.95"/><rect x="147" y="159" width="6" height="6" fill="#ffd166" opacity="0.95"/><rect x="162" y="156" width="6" height="6" fill="#ffd166" opacity="0.95"/><rect x="174" y="156" width="6" height="6" fill="#ffd166" opacity="0.95"/><rect x="189" y="159" width="6" height="6" fill="#ffd166" opacity="0.95"/><rect x="198" y="168" width="6" height="6" fill="#ffd166" opacity="0.95"/><rect x="207" y="177" width="6" height="6" fill="#ffd166" opacity="0.95"/><rect x="213" y="189" width="6" height="6" fill="#ffd166" opacity="0.95"/><rect x="375" y="198" width="6" height="6" fill="#ffd166" opacity="0.95"/><rect x="372" y="213" width="6" height="6" fill="#ffd166" opacity="0.95"/><rect x="366" y="225" width="6" height="6" fill="#ffd166" opacity="0.95"/><rect x="357" y="237" width="6" height="6" fill="#ffd166" opacity="0.95"/><rect x="345" y="246" width="6" height="6" fill="#ffd166" opacity="0.95"/><rect x="330" y="249" width="6" height="6" fill="#ffd166" opacity="0.95"/><rect x="315" y="249" width="6" height="6" fill="#ffd166" opacity="0.95"/><rect x="300" y="246" width="6" height="6" fill="#ffd166" opacity="0.95"/><rect x="288" y="237" width="6" height="6" fill="#ffd166" opacity="0.95"/><rect x="279" y="225" width="6" height="6" fill="#ffd166" opacity="0.95"/><rect x="273" y="213" width="6" height="6" fill="#ffd166" opacity="0.95"/><rect x="270" y="198" width="6" height="6" fill="#ffd166" opacity="0.95"/><rect x="273" y="183" width="6" height="6" fill="#ffd166" opacity="0.95"/><rect x="279" y="171" width="6" height="6" fill="#ffd166" opacity="0.95"/><rect x="288" y="159" width="6" height="6" fill="#ffd166" opacity="0.95"/><rect x="300" y="150" width="6" height="6" fill="#ffd166" opacity="0.95"/><rect x="315" y="147" width="6" height="6" fill="#ffd166" opacity="0.95"/><rect x="330" y="147" width="6" height="6" fill="#ffd166" opacity="0.95"/><rect x="345" y="150" width="6" height="6" fill="#ffd166" opacity="0.95"/><rect x="357" y="159" width="6" height="6" fill="#ffd166" opacity="0.95"/><rect x="366" y="171" width="6" height="6" fill="#ffd166" opacity="0.95"/><rect x="372" y="183" width="6" height="6" fill="#ffd166" opacity="0.95"/><rect x="246" y="174" width="3" height="3" fill="#eaf6ff"/><rect x="249" y="174" width="3" height="3" fill="#eaf6ff"/><rect x="243" y="177" width="3" height="3" fill="#eaf6ff"/><rect x="246" y="177" width="3" height="3" fill="#66e2ff"/><rect x="249" y="177" width="3" height="3" fill="#66e2ff"/><rect x="252" y="177" width="3" height="3" fill="#eaf6ff"/><rect x="243" y="180" width="3" height="3" fill="#eaf6ff"/><rect x="246" y="180" width="3" height="3" fill="#66e2ff"/><rect x="249" y="180" width="3" height="3" fill="#66e2ff"/><rect x="252" y="180" width="3" height="3" fill="#eaf6ff"/><rect x="240" y="183" width="3" height="3" fill="#eaf6ff"/><rect x="243" y="183" width="3" height="3" fill="#66e2ff"/><rect x="246" y="183" width="3" height="3" fill="#66e2ff"/><rect x="249" y="183" width="3" height="3" fill="#66e2ff"/><rect x="252" y="183" width="3" height="3" fill="#66e2ff"/><rect x="255" y="183" width="3" height="3" fill="#eaf6ff"/><rect x="243" y="186" width="3" height="3" fill="#66e2ff"/><rect x="246" y="186" width="3" height="3" fill="#66e2ff"/><rect x="249" y="186" width="3" height="3" fill="#66e2ff"/><rect x="252" y="186" width="3" height="3" fill="#66e2ff"/><rect x="255" y="186" width="3" height="3" fill="#66e2ff"/><rect x="258" y="186" width="3" height="3" fill="#66e2ff"/><rect x="240" y="189" width="3" height="3" fill="#66e2ff"/><rect x="243" y="189" width="3" height="3" fill="#66e2ff"/><rect x="246" y="189" width="3" height="3" fill="#66e2ff"/><rect x="249" y="189" width="3" height="3" fill="#eaf6ff"/><rect x="252" y="189" width="3" height="3" fill="#eaf6ff"/><rect x="255" y="189" width="3" height="3" fill="#66e2ff"/><rect x="258" y="189" width="3" height="3" fill="#66e2ff"/><rect x="261" y="189" width="3" height="3" fill="#66e2ff"/><rect x="237" y="192" width="3" height="3" fill="#66e2ff"/><rect x="240" y="192" width="3" height="3" fill="#66e2ff"/><rect x="243" y="192" width="3" height="3" fill="#66e2ff"/><rect x="246" y="192" width="3" height="3" fill="#66e2ff"/><rect x="249" y="192" width="3" height="3" fill="#eaf6ff"/><rect x="252" y="192" width="3" height="3" fill="#eaf6ff"/><rect x="255" y="192" width="3" height="3" fill="#66e2ff"/><rect x="258" y="192" width="3" height="3" fill="#66e2ff"/><rect x="261" y="192" width="3" height="3" fill="#66e2ff"/><rect x="264" y="192" width="3" height="3" fill="#66e2ff"/><rect x="234" y="195" width="3" height="3" fill="#66e2ff"/><rect x="237" y="195" width="3" height="3" fill="#2f7fb8"/><rect x="240" y="195" width="3" height="3" fill="#2f7fb8"/><rect x="243" y="195" width="3" height="3" fill="#66e2ff"/><rect x="246" y="195" width="3" height="3" fill="#eaf6ff"/><rect x="249" y="195" width="3" height="3" fill="#eaf6ff"/><rect x="252" y="195" width="3" height="3" fill="#66e2ff"/><rect x="255" y="195" width="3" height="3" fill="#2f7fb8"/><rect x="258" y="195" width="3" height="3" fill="#2f7fb8"/><rect x="261" y="195" width="3" height="3" fill="#66e2ff"/><rect x="264" y="195" width="3" height="3" fill="#66e2ff"/><rect x="231" y="198" width="3" height="3" fill="#66e2ff"/><rect x="234" y="198" width="3" height="3" fill="#2f7fb8"/><rect x="237" y="198" width="3" height="3" fill="#2f7fb8"/><rect x="240" y="198" width="3" height="3" fill="#2f7fb8"/><rect x="243" y="198" width="3" height="3" fill="#66e2ff"/><rect x="246" y="198" width="3" height="3" fill="#eaf6ff"/><rect x="249" y="198" width="3" height="3" fill="#eaf6ff"/><rect x="252" y="198" width="3" height="3" fill="#66e2ff"/><rect x="255" y="198" width="3" height="3" fill="#2f7fb8"/><rect x="258" y="198" width="3" height="3" fill="#2f7fb8"/><rect x="261" y="198" width="3" height="3" fill="#2f7fb8"/><rect x="264" y="198" width="3" height="3" fill="#66e2ff"/><rect x="228" y="201" width="3" height="3" fill="#66e2ff"/><rect x="231" y="201" width="3" height="3" fill="#2f7fb8"/><rect x="234" y="201" width="3" height="3" fill="#2f7fb8"/><rect x="237" y="201" width="3" height="3" fill="#123a55"/><rect x="240" y="201" width="3" height="3" fill="#123a55"/><rect x="243" y="201" width="3" height="3" fill="#2f7fb8"/><rect x="246" y="201" width="3" height="3" fill="#66e2ff"/><rect x="249" y="201" width="3" height="3" fill="#66e2ff"/><rect x="252" y="201" width="3" height="3" fill="#2f7fb8"/><rect x="255" y="201" width="3" height="3" fill="#123a55"/><rect x="258" y="201" width="3" height="3" fill="#123a55"/><rect x="261" y="201" width="3" height="3" fill="#2f7fb8"/><rect x="264" y="201" width="3" height="3" fill="#2f7fb8"/><rect x="225" y="204" width="3" height="3" fill="#66e2ff"/><rect x="228" y="204" width="3" height="3" fill="#66e2ff"/><rect x="231" y="204" width="3" height="3" fill="#2f7fb8"/><rect x="234" y="204" width="3" height="3" fill="#123a55"/><rect x="246" y="204" width="3" height="3" fill="#66e2ff"/><rect x="249" y="204" width="3" height="3" fill="#66e2ff"/><rect x="261" y="204" width="3" height="3" fill="#123a55"/><rect x="264" y="204" width="3" height="3" fill="#2f7fb8"/><rect x="225" y="207" width="3" height="3" fill="#66e2ff"/><rect x="228" y="207" width="3" height="3" fill="#2f7fb8"/><rect x="231" y="207" width="3" height="3" fill="#2f7fb8"/><rect x="246" y="207" width="3" height="3" fill="#66e2ff"/><rect x="249" y="207" width="3" height="3" fill="#66e2ff"/><rect x="246" y="210" width="3" height="3" fill="#ffd166"/><rect x="249" y="210" width="3" height="3" fill="#ffd166"/><rect x="246" y="213" width="3" height="3" fill="#ffd166"/><rect x="249" y="213" width="3" height="3" fill="#ffd166"/><rect x="243" y="216" width="3" height="3" fill="#ffd166"/><rect x="246" y="216" width="3" height="3" fill="#fff6dc"/><rect x="249" y="216" width="3" height="3" fill="#fff6dc"/><rect x="252" y="216" width="3" height="3" fill="#ffd166"/><rect x="243" y="219" width="3" height="3" fill="#ffd166"/><rect x="246" y="219" width="3" height="3" fill="#ff8a3c"/><rect x="249" y="219" width="3" height="3" fill="#ff8a3c"/><rect x="252" y="219" width="3" height="3" fill="#ffd166"/><rect x="246" y="222" width="3" height="3" fill="#ff8a3c"/><rect x="249" y="222" width="3" height="3" fill="#ff8a3c"/><rect x="246" y="225" width="3" height="3" fill="#e8283c"/><rect x="225" y="198" width="3" height="3" fill="#ffd166" opacity="0.90"/><rect x="252" y="204" width="3" height="3" fill="#ffd166" opacity="0.76"/><rect x="246" y="204" width="3" height="3" fill="#ffd166" opacity="0.85"/><rect x="258" y="174" width="3" height="3" fill="#ffd166" opacity="0.49"/><rect x="252" y="180" width="3" height="3" fill="#ffd166" opacity="0.59"/><rect x="252" y="195" width="3" height="3" fill="#ffd166" opacity="0.60"/><rect x="240" y="207" width="3" height="3" fill="#ffd166" opacity="0.55"/><rect x="255" y="195" width="3" height="3" fill="#ffd166" opacity="0.43"/><rect x="225" y="186" width="3" height="3" fill="#ffd166" opacity="0.66"/><rect x="255" y="192" width="3" height="3" fill="#ffd166" opacity="0.48"/><rect x="252" y="195" width="3" height="3" fill="#ffd166" opacity="0.69"/><rect x="249" y="180" width="3" height="3" fill="#ffd166" opacity="0.44"/><rect x="276" y="204" width="3" height="3" fill="#ffd166" opacity="0.35"/><rect x="243" y="195" width="3" height="3" fill="#ffd166" opacity="0.71"/><rect x="243" y="204" width="3" height="3" fill="#ffd166" opacity="0.70"/><rect x="240" y="222" width="3" height="3" fill="#ffd166" opacity="0.37"/><rect x="234" y="222" width="3" height="3" fill="#ffd166" opacity="0.42"/><rect x="255" y="219" width="3" height="3" fill="#ffd166" opacity="0.77"/><rect x="240" y="189" width="3" height="3" fill="#ffd166" opacity="0.71"/><rect x="246" y="210" width="3" height="3" fill="#ffd166" opacity="0.75"/><rect x="249" y="210" width="3" height="3" fill="#ffd166" opacity="0.69"/><rect x="261" y="210" width="3" height="3" fill="#ffd166" opacity="0.83"/><rect x="270" y="204" width="3" height="3" fill="#ffd166" opacity="0.73"/><rect x="225" y="207" width="3" height="3" fill="#ffd166" opacity="0.71"/><rect x="231" y="210" width="3" height="3" fill="#ffd166" opacity="0.50"/><rect x="246" y="189" width="3" height="3" fill="#ffd166" opacity="0.63"/><rect x="222" y="219" width="3" height="3" fill="#ffd166" opacity="0.62"/><rect x="228" y="195" width="3" height="3" fill="#ffd166" opacity="0.54"/><rect x="264" y="219" width="3" height="3" fill="#ffd166" opacity="0.65"/><rect x="255" y="225" width="3" height="3" fill="#ffd166" opacity="0.80"/><rect x="0" y="0" width="480" height="1" fill="#000" opacity="0.26"/><rect x="0" y="3" width="480" height="1" fill="#000" opacity="0.26"/><rect x="0" y="6" width="480" height="1" fill="#000" opacity="0.26"/><rect x="0" y="9" width="480" height="1" fill="#000" opacity="0.26"/><rect x="0" y="12" width="480" height="1" fill="#000" opacity="0.26"/><rect x="0" y="15" width="480" height="1" fill="#000" opacity="0.26"/><rect x="0" y="18" width="480" height="1" fill="#000" opacity="0.26"/><rect x="0" y="21" width="480" height="1" fill="#000" opacity="0.26"/><rect x="0" y="24" width="480" height="1" fill="#000" opacity="0.26"/><rect x="0" y="27" width="480" height="1" fill="#000" opacity="0.26"/><rect x="0" y="30" width="480" height="1" fill="#000" opacity="0.26"/><rect x="0" y="33" width="480" height="1" fill="#000" opacity="0.26"/><rect x="0" y="36" width="480" height="1" fill="#000" opacity="0.26"/><rect x="0" y="39" width="480" height="1" fill="#000" opacity="0.26"/><rect x="0" y="42" width="480" height="1" fill="#000" opacity="0.26"/><rect x="0" y="45" width="480" height="1" fill="#000" opacity="0.26"/><rect x="0" y="48" width="480" height="1" fill="#000" opacity="0.26"/><rect x="0" y="51" width="480" height="1" fill="#000" opacity="0.26"/><rect x="0" y="54" width="480" height="1" fill="#000" opacity="0.26"/><rect x="0" y="57" width="480" height="1" fill="#000" opacity="0.26"/><rect x="0" y="60" width="480" height="1" fill="#000" opacity="0.26"/><rect x="0" y="63" width="480" height="1" fill="#000" opacity="0.26"/><rect x="0" y="66" width="480" height="1" fill="#000" opacity="0.26"/><rect x="0" y="69" width="480" height="1" fill="#000" opacity="0.26"/><rect x="0" y="72" width="480" height="1" fill="#000" opacity="0.26"/><rect x="0" y="75" width="480" height="1" fill="#000" opacity="0.26"/><rect x="0" y="78" width="480" height="1" fill="#000" opacity="0.26"/><rect x="0" y="81" width="480" height="1" fill="#000" opacity="0.26"/><rect x="0" y="84" width="480" height="1" fill="#000" opacity="0.26"/><rect x="0" y="87" width="480" height="1" fill="#000" opacity="0.26"/><rect x="0" y="90" width="480" height="1" fill="#000" opacity="0.26"/><rect x="0" y="93" width="480" height="1" fill="#000" opacity="0.26"/><rect x="0" y="96" width="480" height="1" fill="#000" opacity="0.26"/><rect x="0" y="99" width="480" height="1" fill="#000" opacity="0.26"/><rect x="0" y="102" width="480" height="1" fill="#000" opacity="0.26"/><rect x="0" y="105" width="480" height="1" fill="#000" opacity="0.26"/><rect x="0" y="108" width="480" height="1" fill="#000" opacity="0.26"/><rect x="0" y="111" width="480" height="1" fill="#000" opacity="0.26"/><rect x="0" y="114" width="480" height="1" fill="#000" opacity="0.26"/><rect x="0" y="117" width="480" height="1" fill="#000" opacity="0.26"/><rect x="0" y="120" width="480" height="1" fill="#000" opacity="0.26"/><rect x="0" y="123" width="480" height="1" fill="#000" opacity="0.26"/><rect x="0" y="126" width="480" height="1" fill="#000" opacity="0.26"/><rect x="0" y="129" width="480" height="1" fill="#000" opacity="0.26"/><rect x="0" y="132" width="480" height="1" fill="#000" opacity="0.26"/><rect x="0" y="135" width="480" height="1" fill="#000" opacity="0.26"/><rect x="0" y="138" width="480" height="1" fill="#000" opacity="0.26"/><rect x="0" y="141" width="480" height="1" fill="#000" opacity="0.26"/><rect x="0" y="144" width="480" height="1" fill="#000" opacity="0.26"/><rect x="0" y="147" width="480" height="1" fill="#000" opacity="0.26"/><rect x="0" y="150" width="480" height="1" fill="#000" opacity="0.26"/><rect x="0" y="153" width="480" height="1" fill="#000" opacity="0.26"/><rect x="0" y="156" width="480" height="1" fill="#000" opacity="0.26"/><rect x="0" y="159" width="480" height="1" fill="#000" opacity="0.26"/><rect x="0" y="162" width="480" height="1" fill="#000" opacity="0.26"/><rect x="0" y="165" width="480" height="1" fill="#000" opacity="0.26"/><rect x="0" y="168" width="480" height="1" fill="#000" opacity="0.26"/><rect x="0" y="171" width="480" height="1" fill="#000" opacity="0.26"/><rect x="0" y="174" width="480" height="1" fill="#000" opacity="0.26"/><rect x="0" y="177" width="480" height="1" fill="#000" opacity="0.26"/><rect x="0" y="180" width="480" height="1" fill="#000" opacity="0.26"/><rect x="0" y="183" width="480" height="1" fill="#000" opacity="0.26"/><rect x="0" y="186" width="480" height="1" fill="#000" opacity="0.26"/><rect x="0" y="189" width="480" height="1" fill="#000" opacity="0.26"/><rect x="0" y="192" width="480" height="1" fill="#000" opacity="0.26"/><rect x="0" y="195" width="480" height="1" fill="#000" opacity="0.26"/><rect x="0" y="198" width="480" height="1" fill="#000" opacity="0.26"/><rect x="0" y="201" width="480" height="1" fill="#000" opacity="0.26"/><rect x="0" y="204" width="480" height="1" fill="#000" opacity="0.26"/><rect x="0" y="207" width="480" height="1" fill="#000" opacity="0.26"/><rect x="0" y="210" width="480" height="1" fill="#000" opacity="0.26"/><rect x="0" y="213" width="480" height="1" fill="#000" opacity="0.26"/><rect x="0" y="216" width="480" height="1" fill="#000" opacity="0.26"/><rect x="0" y="219" width="480" height="1" fill="#000" opacity="0.26"/><rect x="0" y="222" width="480" height="1" fill="#000" opacity="0.26"/><rect x="0" y="225" width="480" height="1" fill="#000" opacity="0.26"/><rect x="0" y="228" width="480" height="1" fill="#000" opacity="0.26"/><rect x="0" y="231" width="480" height="1" fill="#000" opacity="0.26"/><rect x="0" y="234" width="480" height="1" fill="#000" opacity="0.26"/><rect x="0" y="237" width="480" height="1" fill="#000" opacity="0.26"/><rect x="0" y="240" width="480" height="1" fill="#000" opacity="0.26"/><rect x="0" y="243" width="480" height="1" fill="#000" opacity="0.26"/><rect x="0" y="246" width="480" height="1" fill="#000" opacity="0.26"/><rect x="0" y="249" width="480" height="1" fill="#000" opacity="0.26"/><rect x="0" y="252" width="480" height="1" fill="#000" opacity="0.26"/><rect x="0" y="255" width="480" height="1" fill="#000" opacity="0.26"/><rect x="0" y="258" width="480" height="1" fill="#000" opacity="0.26"/><rect x="0" y="261" width="480" height="1" fill="#000" opacity="0.26"/><rect x="0" y="264" width="480" height="1" fill="#000" opacity="0.26"/><rect x="0" y="267" width="480" height="1" fill="#000" opacity="0.26"/><rect x="0" y="270" width="480" height="1" fill="#000" opacity="0.26"/><rect x="0" y="273" width="480" height="1" fill="#000" opacity="0.26"/><rect x="0" y="276" width="480" height="1" fill="#000" opacity="0.26"/><rect x="0" y="279" width="480" height="1" fill="#000" opacity="0.26"/><rect x="0" y="282" width="480" height="1" fill="#000" opacity="0.26"/><rect x="0" y="285" width="480" height="1" fill="#000" opacity="0.26"/><rect x="0" y="288" width="480" height="1" fill="#000" opacity="0.26"/><rect x="0" y="291" width="480" height="1" fill="#000" opacity="0.26"/><rect x="0" y="294" width="480" height="1" fill="#000" opacity="0.26"/><rect x="0" y="297" width="480" height="1" fill="#000" opacity="0.26"/></svg>