<svg xmlns="http://www.w3.org/2000/svg" viewBox="0 0 480 300" width="480" height="300" shape-rendering="crispEdges" role="img"><rect width="480" height="300" fill="#070912"/><rect x="30" y="0" width="1" height="300" fill="#7896dc" opacity="0.055"/><rect x="72" y="0" width="1" height="300" fill="#7896dc" opacity="0.055"/><rect x="114" y="0" width="1" height="300" fill="#7896dc" opacity="0.055"/><rect x="156" y="0" width="1" height="300" fill="#7896dc" opacity="0.055"/><rect x="198" y="0" width="1" height="300" fill="#7896dc" opacity="0.055"/><rect x="240" y="0" width="1" height="300" fill="#7896dc" opacity="0.055"/><rect x="282" y="0" width="1" height="300" fill="#7896dc" opacity="0.055"/><rect x="324" y="0" width="1" height="300" fill="#7896dc" opacity="0.055"/><rect x="366" y="0" width="1" height="300" fill="#7896dc" opacity="0.055"/><rect x="408" y="0" width="1" height="300" fill="#7896dc" opacity="0.055"/><rect x="450" y="0" width="1" height="300" fill="#7896dc" opacity="0.055"/><rect x="0" y="34" width="480" height="1" fill="#7896dc" opacity="0.055"/><rect x="0" y="54" width="480" height="1" fill="#7896dc" opacity="0.055"/><rect x="0" y="74" width="480" height="1" fill="#7896dc" opacity="0.055"/><rect x="0" y="94" width="480" height="1" fill="#7896dc" opacity="0.055"/><rect x="0" y="114" width="480" height="1" fill="#7896dc" opacity="0.055"/><rect x="0" y="134" width="480" height="1" fill="#7896dc" opacity="0.055"/><rect x="0" y="154" width="480" height="1" fill="#7896dc" opacity="0.055"/><rect x="0" y="174" width="480" height="1" fill="#7896dc" opacity="0.055"/><rect x="0" y="194" width="480" height="1" fill="#7896dc" opacity="0.055"/><rect x="0" y="214" width="480" height="1" fill="#7896dc" opacity="0.055"/><rect x="31" y="35" width="39" height="17" fill="#b45cff"/><rect x="31" y="35" width="39" height="3" fill="#d7a3ff"/><rect x="31" y="35" width="3" height="17" fill="#d7a3ff"/><rect x="31" y="49" width="39" height="3" fill="#5a1e8a"/><rect x="67" y="35" width="3" height="17" fill="#5a1e8a"/><rect x="73" y="35" width="39" height="17" fill="#b45cff"/><rect x="73" y="35" width="39" height="3" fill="#d7a3ff"/><rect x="73" y="35" width="3" height="17" fill="#d7a3ff"/><rect x="73" y="49" width="39" height="3" fill="#5a1e8a"/><rect x="109" y="35" width="3" height="17" fill="#5a1e8a"/><rect x="115" y="35" width="39" height="17" fill="#b45cff"/><rect x="115" y="35" width="39" height="3" fill="#d7a3ff"/><rect x="115" y="35" width="3" height="17" fill="#d7a3ff"/><rect x="115" y="49" width="39" height="3" fill="#5a1e8a"/><rect x="151" y="35" width="3" height="17" fill="#5a1e8a"/><rect x="157" y="35" width="39" height="17" fill="#b45cff"/><rect x="157" y="35" width="39" height="3" fill="#d7a3ff"/><rect x="157" y="35" width="3" height="17" fill="#d7a3ff"/><rect x="157" y="49" width="39" height="3" fill="#5a1e8a"/><rect x="193" y="35" width="3" height="17" fill="#5a1e8a"/><rect x="199" y="35" width="39" height="17" fill="#b45cff"/><rect x="199" y="35" width="39" height="3" fill="#d7a3ff"/><rect x="199" y="35" width="3" height="17" fill="#d7a3ff"/><rect x="199" y="49" width="39" height="3" fill="#5a1e8a"/><rect x="235" y="35" width="3" height="17" fill="#5a1e8a"/><rect x="241" y="35" width="39" height="17" fill="#b45cff"/><rect x="241" y="35" width="39" height="3" fill="#d7a3ff"/><rect x="241" y="35" width="3" height="17" fill="#d7a3ff"/><rect x="241" y="49" width="39" height="3" fill="#5a1e8a"/><rect x="277" y="35" width="3" height="17" fill="#5a1e8a"/><rect x="283" y="35" width="39" height="17" fill="#b45cff"/><rect x="283" y="35" width="39" height="3" fill="#d7a3ff"/><rect x="283" y="35" width="3" height="17" fill="#d7a3ff"/><rect x="283" y="49" width="39" height="3" fill="#5a1e8a"/><rect x="319" y="35" width="3" height="17" fill="#5a1e8a"/><rect x="325" y="35" width="39" height="17" fill="#b45cff"/><rect x="325" y="35" width="39" height="3" fill="#d7a3ff"/><rect x="325" y="35" width="3" height="17" fill="#d7a3ff"/><rect x="325" y="49" width="39" height="3" fill="#5a1e8a"/><rect x="361" y="35" width="3" height="17" fill="#5a1e8a"/><rect x="367" y="35" width="39" height="17" fill="#b45cff"/><rect x="367" y="35" width="39" height="3" fill="#d7a3ff"/><rect x="367" y="35" width="3" height="17" fill="#d7a3ff"/><rect x="367" y="49" width="39" height="3" fill="#5a1e8a"/><rect x="403" y="35" width="3" height="17" fill="#5a1e8a"/><rect x="409" y="35" width="39" height="17" fill="#b45cff"/><rect x="409" y="35" width="39" height="3" fill="#d7a3ff"/><rect x="409" y="35" width="3" height="17" fill="#d7a3ff"/><rect x="409" y="49" width="39" height="3" fill="#5a1e8a"/><rect x="445" y="35" width="3" height="17" fill="#5a1e8a"/><rect x="31" y="55" width="39" height="17" fill="#6a7bff"/><rect x="31" y="55" width="39" height="3" fill="#a9b4ff"/><rect x="31" y="55" width="3" height="17" fill="#a9b4ff"/><rect x="31" y="69" width="39" height="3" fill="#2b3391"/><rect x="67" y="55" width="3" height="17" fill="#2b3391"/><rect x="73" y="55" width="39" height="17" fill="#9fb3c8"/><rect x="73" y="55" width="39" height="3" fill="#e2ecf5"/><rect x="73" y="55" width="3" height="17" fill="#e2ecf5"/><rect x="73" y="69" width="39" height="3" fill="#43566b"/><rect x="109" y="55" width="3" height="17" fill="#43566b"/><rect x="115" y="55" width="39" height="17" fill="#6a7bff"/><rect x="115" y="55" width="39" height="3" fill="#a9b4ff"/><rect x="115" y="55" width="3" height="17" fill="#a9b4ff"/><rect x="115" y="69" width="39" height="3" fill="#2b3391"/><rect x="151" y="55" width="3" height="17" fill="#2b3391"/><rect x="157" y="55" width="39" height="17" fill="#6a7bff"/><rect x="157" y="55" width="39" height="3" fill="#a9b4ff"/><rect x="157" y="55" width="3" height="17" fill="#a9b4ff"/><rect x="157" y="69" width="39" height="3" fill="#2b3391"/><rect x="193" y="55" width="3" height="17" fill="#2b3391"/><rect x="199" y="55" width="39" height="17" fill="#6a7bff"/><rect x="199" y="55" width="39" height="3" fill="#a9b4ff"/><rect x="199" y="55" width="3" height="17" fill="#a9b4ff"/><rect x="199" y="69" width="39" height="3" fill="#2b3391"/><rect x="235" y="55" width="3" height="17" fill="#2b3391"/><rect x="241" y="55" width="39" height="17" fill="#6a7bff"/><rect x="241" y="55" width="39" height="3" fill="#a9b4ff"/><rect x="241" y="55" width="3" height="17" fill="#a9b4ff"/><rect x="241" y="69" width="39" height="3" fill="#2b3391"/><rect x="277" y="55" width="3" height="17" fill="#2b3391"/><rect x="283" y="55" width="39" height="17" fill="#ff3b30"/><rect x="283" y="55" width="39" height="3" fill="#ffb0aa"/><rect x="283" y="55" width="3" height="17" fill="#ffb0aa"/><rect x="283" y="69" width="39" height="3" fill="#7a1109"/><rect x="319" y="55" width="3" height="17" fill="#7a1109"/><rect x="296.5" y="58.5" width="11" height="9" fill="#2b0704"/><rect x="306.5" y="54.5" width="3" height="4" fill="#ffd23c"/><rect x="325" y="55" width="39" height="17" fill="#6a7bff"/><rect x="325" y="55" width="39" height="3" fill="#a9b4ff"/><rect x="325" y="55" width="3" height="17" fill="#a9b4ff"/><rect x="325" y="69" width="39" height="3" fill="#2b3391"/><rect x="361" y="55" width="3" height="17" fill="#2b3391"/><rect x="367" y="55" width="39" height="17" fill="#6a7bff"/><rect x="367" y="55" width="39" height="3" fill="#a9b4ff"/><rect x="367" y="55" width="3" height="17" fill="#a9b4ff"/><rect x="367" y="69" width="39" height="3" fill="#2b3391"/><rect x="403" y="55" width="3" height="17" fill="#2b3391"/><rect x="409" y="55" width="39" height="17" fill="#6a7bff"/><rect x="409" y="55" width="39" height="3" fill="#a9b4ff"/><rect x="409" y="55" width="3" height="17" fill="#a9b4ff"/><rect x="409" y="69" width="39" height="3" fill="#2b3391"/><rect x="445" y="55" width="3" height="17" fill="#2b3391"/><rect x="31" y="75" width="39" height="17" fill="#2fb8ff"/><rect x="31" y="75" width="39" height="3" fill="#a2e2ff"/><rect x="31" y="75" width="3" height="17" fill="#a2e2ff"/><rect x="31" y="89" width="39" height="3" fill="#12557f"/><rect x="67" y="75" width="3" height="17" fill="#12557f"/><rect x="73" y="75" width="39" height="17" fill="#2fb8ff"/><rect x="73" y="75" width="39" height="3" fill="#a2e2ff"/><rect x="73" y="75" width="3" height="17" fill="#a2e2ff"/><rect x="73" y="89" width="39" height="3" fill="#12557f"/><rect x="109" y="75" width="3" height="17" fill="#12557f"/><rect x="115" y="75" width="39" height="17" fill="#2fb8ff"/><rect x="115" y="75" width="39" height="3" fill="#a2e2ff"/><rect x="115" y="75" width="3" height="17" fill="#a2e2ff"/><rect x="115" y="89" width="39" height="3" fill="#12557f"/><rect x="151" y="75" width="3" height="17" fill="#12557f"/><rect x="283" y="75" width="39" height="17" fill="#2fb8ff"/><rect x="283" y="75" width="39" height="3" fill="#a2e2ff"/><rect x="283" y="75" width="3" height="17" fill="#a2e2ff"/><rect x="283" y="89" width="39" height="3" fill="#12557f"/><rect x="319" y="75" width="3" height="17" fill="#12557f"/><rect x="325" y="75" width="39" height="17" fill="#2fb8ff"/><rect x="325" y="75" width="39" height="3" fill="#a2e2ff"/><rect x="325" y="75" width="3" height="17" fill="#a2e2ff"/><rect x="325" y="89" width="39" height="3" fill="#12557f"/><rect x="361" y="75" width="3" height="17" fill="#12557f"/><rect x="367" y="75" width="39" height="17" fill="#9fb3c8"/><rect x="367" y="75" width="39" height="3" fill="#e2ecf5"/><rect x="367" y="75" width="3" height="17" fill="#e2ecf5"/><rect x="367" y="89" width="39" height="3" fill="#43566b"/><rect x="403" y="75" width="3" height="17" fill="#43566b"/><rect x="409" y="75" width="39" height="17" fill="#2fb8ff"/><rect x="409" y="75" width="39" height="3" fill="#a2e2ff"/><rect x="409" y="75" width="3" height="17" fill="#a2e2ff"/><rect x="409" y="89" width="39" height="3" fill="#12557f"/><rect x="445" y="75" width="3" height="17" fill="#12557f"/><rect x="31" y="95" width="39" height="17" fill="#28d6b0"/><rect x="31" y="95" width="39" height="3" fill="#a6f2e2"/><rect x="31" y="95" width="3" height="17" fill="#a6f2e2"/><rect x="31" y="109" width="39" height="3" fill="#0f6354"/><rect x="67" y="95" width="3" height="17" fill="#0f6354"/><rect x="73" y="95" width="39" height="17" fill="#28d6b0"/><rect x="73" y="95" width="39" height="3" fill="#a6f2e2"/><rect x="73" y="95" width="3" height="17" fill="#a6f2e2"/><rect x="73" y="109" width="39" height="3" fill="#0f6354"/><rect x="109" y="95" width="3" height="17" fill="#0f6354"/><rect x="115" y="95" width="39" height="17" fill="#ff3b30"/><rect x="115" y="95" width="39" height="3" fill="#ffb0aa"/><rect x="115" y="95" width="3" height="17" fill="#ffb0aa"/><rect x="115" y="109" width="39" height="3" fill="#7a1109"/><rect x="151" y="95" width="3" height="17" fill="#7a1109"/><rect x="128.5" y="98.5" width="11" height="9" fill="#2b0704"/><rect x="138.5" y="94.5" width="3" height="4" fill="#ffd23c"/><rect x="157" y="95" width="39" height="17" fill="#28d6b0"/><rect x="157" y="95" width="39" height="3" fill="#a6f2e2"/><rect x="157" y="95" width="3" height="17" fill="#a6f2e2"/><rect x="157" y="109" width="39" height="3" fill="#0f6354"/><rect x="193" y="95" width="3" height="17" fill="#0f6354"/><rect x="241" y="95" width="39" height="17" fill="#28d6b0"/><rect x="241" y="95" width="39" height="3" fill="#a6f2e2"/><rect x="241" y="95" width="3" height="17" fill="#a6f2e2"/><rect x="241" y="109" width="39" height="3" fill="#0f6354"/><rect x="277" y="95" width="3" height="17" fill="#0f6354"/><rect x="283" y="95" width="39" height="17" fill="#9fb3c8"/><rect x="283" y="95" width="39" height="3" fill="#e2ecf5"/><rect x="283" y="95" width="3" height="17" fill="#e2ecf5"/><rect x="283" y="109" width="39" height="3" fill="#43566b"/><rect x="319" y="95" width="3" height="17" fill="#43566b"/><rect x="325" y="95" width="39" height="17" fill="#28d6b0"/><rect x="325" y="95" width="39" height="3" fill="#a6f2e2"/><rect x="325" y="95" width="3" height="17" fill="#a6f2e2"/><rect x="325" y="109" width="39" height="3" fill="#0f6354"/><rect x="361" y="95" width="3" height="17" fill="#0f6354"/><rect x="367" y="95" width="39" height="17" fill="#28d6b0"/><rect x="367" y="95" width="39" height="3" fill="#a6f2e2"/><rect x="367" y="95" width="3" height="17" fill="#a6f2e2"/><rect x="367" y="109" width="39" height="3" fill="#0f6354"/><rect x="403" y="95" width="3" height="17" fill="#0f6354"/><rect x="409" y="95" width="39" height="17" fill="#28d6b0"/><rect x="409" y="95" width="39" height="3" fill="#a6f2e2"/><rect x="409" y="95" width="3" height="17" fill="#a6f2e2"/><rect x="409" y="109" width="39" height="3" fill="#0f6354"/><rect x="445" y="95" width="3" height="17" fill="#0f6354"/><rect x="31" y="115" width="39" height="17" fill="#5ad84a"/><rect x="31" y="115" width="39" height="3" fill="#bff5b6"/><rect x="31" y="115" width="3" height="17" fill="#bff5b6"/><rect x="31" y="129" width="39" height="3" fill="#266620"/><rect x="67" y="115" width="3" height="17" fill="#266620"/><rect x="73" y="115" width="39" height="17" fill="#5ad84a"/><rect x="73" y="115" width="39" height="3" fill="#bff5b6"/><rect x="73" y="115" width="3" height="17" fill="#bff5b6"/><rect x="73" y="129" width="39" height="3" fill="#266620"/><rect x="109" y="115" width="3" height="17" fill="#266620"/><rect x="115" y="115" width="39" height="17" fill="#5ad84a"/><rect x="115" y="115" width="39" height="3" fill="#bff5b6"/><rect x="115" y="115" width="3" height="17" fill="#bff5b6"/><rect x="115" y="129" width="39" height="3" fill="#266620"/><rect x="151" y="115" width="3" height="17" fill="#266620"/><rect x="157" y="115" width="39" height="17" fill="#5ad84a"/><rect x="157" y="115" width="39" height="3" fill="#bff5b6"/><rect x="157" y="115" width="3" height="17" fill="#bff5b6"/><rect x="157" y="129" width="39" height="3" fill="#266620"/><rect x="193" y="115" width="3" height="17" fill="#266620"/><rect x="283" y="115" width="39" height="17" fill="#5ad84a"/><rect x="283" y="115" width="39" height="3" fill="#bff5b6"/><rect x="283" y="115" width="3" height="17" fill="#bff5b6"/><rect x="283" y="129" width="39" height="3" fill="#266620"/><rect x="319" y="115" width="3" height="17" fill="#266620"/><rect x="325" y="115" width="39" height="17" fill="#5ad84a"/><rect x="325" y="115" width="39" height="3" fill="#bff5b6"/><rect x="325" y="115" width="3" height="17" fill="#bff5b6"/><rect x="325" y="129" width="39" height="3" fill="#266620"/><rect x="361" y="115" width="3" height="17" fill="#266620"/><rect x="367" y="115" width="39" height="17" fill="#5ad84a"/><rect x="367" y="115" width="39" height="3" fill="#bff5b6"/><rect x="367" y="115" width="3" height="17" fill="#bff5b6"/><rect x="367" y="129" width="39" height="3" fill="#266620"/><rect x="403" y="115" width="3" height="17" fill="#266620"/><rect x="409" y="115" width="39" height="17" fill="#5ad84a"/><rect x="409" y="115" width="39" height="3" fill="#bff5b6"/><rect x="409" y="115" width="3" height="17" fill="#bff5b6"/><rect x="409" y="129" width="39" height="3" fill="#266620"/><rect x="445" y="115" width="3" height="17" fill="#266620"/><rect x="31" y="135" width="39" height="17" fill="#c9d63a"/><rect x="31" y="135" width="39" height="3" fill="#eff5a8"/><rect x="31" y="135" width="3" height="17" fill="#eff5a8"/><rect x="31" y="149" width="39" height="3" fill="#5d6613"/><rect x="67" y="135" width="3" height="17" fill="#5d6613"/><rect x="73" y="135" width="39" height="17" fill="#c9d63a"/><rect x="73" y="135" width="39" height="3" fill="#eff5a8"/><rect x="73" y="135" width="3" height="17" fill="#eff5a8"/><rect x="73" y="149" width="39" height="3" fill="#5d6613"/><rect x="109" y="135" width="3" height="17" fill="#5d6613"/><rect x="157" y="135" width="39" height="17" fill="#c9d63a"/><rect x="157" y="135" width="39" height="3" fill="#eff5a8"/><rect x="157" y="135" width="3" height="17" fill="#eff5a8"/><rect x="157" y="149" width="39" height="3" fill="#5d6613"/><rect x="193" y="135" width="3" height="17" fill="#5d6613"/><rect x="241" y="135" width="39" height="17" fill="#c9d63a"/><rect x="241" y="135" width="39" height="3" fill="#eff5a8"/><rect x="241" y="135" width="3" height="17" fill="#eff5a8"/><rect x="241" y="149" width="39" height="3" fill="#5d6613"/><rect x="277" y="135" width="3" height="17" fill="#5d6613"/><rect x="283" y="135" width="39" height="17" fill="#c9d63a"/><rect x="283" y="135" width="39" height="3" fill="#eff5a8"/><rect x="283" y="135" width="3" height="17" fill="#eff5a8"/><rect x="283" y="149" width="39" height="3" fill="#5d6613"/><rect x="319" y="135" width="3" height="17" fill="#5d6613"/><rect x="367" y="135" width="39" height="17" fill="#c9d63a"/><rect x="367" y="135" width="39" height="3" fill="#eff5a8"/><rect x="367" y="135" width="3" height="17" fill="#eff5a8"/><rect x="367" y="149" width="39" height="3" fill="#5d6613"/><rect x="403" y="135" width="3" height="17" fill="#5d6613"/><rect x="409" y="135" width="39" height="17" fill="#c9d63a"/><rect x="409" y="135" width="39" height="3" fill="#eff5a8"/><rect x="409" y="135" width="3" height="17" fill="#eff5a8"/><rect x="409" y="149" width="39" height="3" fill="#5d6613"/><rect x="445" y="135" width="3" height="17" fill="#5d6613"/><rect x="208" y="230" width="5" height="5" fill="#bfefff" opacity="0.10"/><rect x="202" y="212" width="5" height="5" fill="#bfefff" opacity="0.20"/><rect x="196" y="194" width="5" height="5" fill="#bfefff" opacity="0.30"/><rect x="190" y="176" width="5" height="5" fill="#bfefff" opacity="0.40"/><rect x="199" y="158" width="5" height="5" fill="#bfefff" opacity="0.50"/><rect x="211" y="140" width="5" height="5" fill="#bfefff" opacity="0.60"/><rect x="227" y="126" width="3" height="3" fill="#ffffff"/><rect x="230" y="126" width="3" height="3" fill="#ffffff"/><rect x="233" y="126" width="3" height="3" fill="#ffffff"/><rect x="236" y="126" width="3" height="3" fill="#ffffff"/><rect x="224" y="129" width="3" height="3" fill="#ffffff"/><rect x="227" y="129" width="3" height="3" fill="#ffffff"/><rect x="230" y="129" width="3" height="3" fill="#ffffff"/><rect x="233" y="129" width="3" height="3" fill="#ffffff"/><rect x="236" y="129" width="3" height="3" fill="#bfefff"/><rect x="239" y="129" width="3" height="3" fill="#ffffff"/><rect x="224" y="132" width="3" height="3" fill="#ffffff"/><rect x="227" y="132" width="3" height="3" fill="#ffffff"/><rect x="230" y="132" width="3" height="3" fill="#ffffff"/><rect x="233" y="132" width="3" height="3" fill="#bfefff"/><rect x="236" y="132" width="3" height="3" fill="#bfefff"/><rect x="239" y="132" width="3" height="3" fill="#4aa8d8"/><rect x="224" y="135" width="3" height="3" fill="#ffffff"/><rect x="227" y="135" width="3" height="3" fill="#bfefff"/><rect x="230" y="135" width="3" height="3" fill="#bfefff"/><rect x="233" y="135" width="3" height="3" fill="#bfefff"/><rect x="236" y="135" width="3" height="3" fill="#4aa8d8"/><rect x="239" y="135" width="3" height="3" fill="#4aa8d8"/><rect x="224" y="138" width="3" height="3" fill="#bfefff"/><rect x="227" y="138" width="3" height="3" fill="#bfefff"/><rect x="230" y="138" width="3" height="3" fill="#4aa8d8"/><rect x="233" y="138" width="3" height="3" fill="#4aa8d8"/><rect x="236" y="138" width="3" height="3" fill="#4aa8d8"/><rect x="239" y="138" width="3" height="3" fill="#4aa8d8"/><rect x="227" y="141" width="3" height="3" fill="#4aa8d8"/><rect x="230" y="141" width="3" height="3" fill="#4aa8d8"/><rect x="233" y="141" width="3" height="3" fill="#4aa8d8"/><rect x="236" y="141" width="3" height="3" fill="#4aa8d8"/><rect x="176" y="262" width="118" height="14" fill="#d8e2ee"/><rect x="176" y="262" width="118" height="3" fill="#ffffff"/><rect x="176" y="273" width="118" height="3" fill="#5b6472"/><rect x="176" y="262" width="12" height="14" fill="#ffb02e"/><rect x="282" y="262" width="12" height="14" fill="#ffb02e"/><rect x="0" y="297" width="480" height="3" fill="#ff4d6d" opacity="0.35"/></svg>